Courier Primal Italic.ufo
<glyph name="dollar" format="2">
  <advance width="1228"/>
  <unicode hex="0024"/>
  <outline>
    <contour>
      <point x="291" y="183" type="line" smooth="yes"/>
      <point x="285" y="148"/>
      <point x="247" y="118"/>
      <point x="205" y="118" type="qcurve" smooth="yes"/>
      <point x="163" y="118"/>
      <point x="135" y="148"/>
      <point x="141" y="183" type="qcurve" smooth="yes"/>
      <point x="183" y="423" type="line" smooth="yes"/>
      <point x="189" y="458"/>
      <point x="228" y="488"/>
      <point x="270" y="488" type="qcurve" smooth="yes"/>
      <point x="292" y="488"/>
      <point x="312" y="469"/>
      <point x="317" y="447" type="qcurve" smooth="yes"/>
      <point x="333" y="372"/>
      <point x="430" y="286"/>
      <point x="515" y="271" type="qcurve"/>
      <point x="565" y="554" type="line"/>
      <point x="526" y="559"/>
      <point x="448" y="574"/>
      <point x="410" y="587" type="qcurve" smooth="yes"/>
      <point x="376" y="598"/>
      <point x="319" y="630"/>
      <point x="298.0" y="652.0" type="qcurve" smooth="yes" name="inserted"/>
      <point x="277" y="674"/>
      <point x="254" y="731"/>
      <point x="254" y="769" type="qcurve" smooth="yes"/>
      <point x="254" y="831"/>
      <point x="304" y="945"/>
      <point x="354.0" y="989.0" type="qcurve" smooth="yes" name="inserted"/>
      <point x="404" y="1033"/>
      <point x="556" y="1086"/>
      <point x="658" y="1086" type="qcurve"/>
      <point x="687" y="1247" type="line" smooth="yes"/>
      <point x="693" y="1282"/>
      <point x="732" y="1312"/>
      <point x="769" y="1312" type="qcurve" smooth="yes"/>
      <point x="806" y="1312"/>
      <point x="833" y="1282"/>
      <point x="827" y="1247" type="qcurve" smooth="yes"/>
      <point x="795" y="1069" type="line"/>
      <point x="845.5" y="1054.5" name="inserted"/>
      <point x="926.0" y="1008.0"/>
      <point x="956" y="976" type="qcurve"/>
      <point x="964" y="1021" type="line" smooth="yes"/>
      <point x="970" y="1056"/>
      <point x="1008" y="1086"/>
      <point x="1050" y="1086" type="qcurve" smooth="yes"/>
      <point x="1092" y="1086"/>
      <point x="1120" y="1056"/>
      <point x="1114" y="1021" type="qcurve" smooth="yes"/>
      <point x="1080" y="831" type="line" smooth="yes"/>
      <point x="1074" y="796"/>
      <point x="1036" y="766"/>
      <point x="994" y="766" type="qcurve" smooth="yes"/>
      <point x="976.5" y="766.0" name="inserted"/>
      <point x="954.5" y="779.0"/>
      <point x="950" y="792" type="qcurve" smooth="yes"/>
      <point x="929" y="853"/>
      <point x="838" y="918"/>
      <point x="771" y="931" type="qcurve"/>
      <point x="728" y="684" type="line"/>
      <point x="770" y="679"/>
      <point x="853" y="663"/>
      <point x="895" y="650" type="qcurve" smooth="yes"/>
      <point x="929" y="639"/>
      <point x="988" y="606"/>
      <point x="1010.0" y="583.0" type="qcurve" smooth="yes" name="inserted"/>
      <point x="1032" y="560"/>
      <point x="1056" y="499"/>
      <point x="1056" y="460" type="qcurve" smooth="yes"/>
      <point x="1056" y="427"/>
      <point x="1039" y="352"/>
      <point x="1019.5" y="314.5" type="qcurve" smooth="yes" name="inserted"/>
      <point x="1000" y="277"/>
      <point x="936" y="207"/>
      <point x="888.5" y="180.0" type="qcurve" smooth="yes" name="inserted"/>
      <point x="841" y="153"/>
      <point x="712" y="119"/>
      <point x="628" y="118" type="qcurve"/>
      <point x="597" y="-60" type="line" smooth="yes"/>
      <point x="591" y="-95"/>
      <point x="552" y="-125"/>
      <point x="515" y="-125" type="qcurve" smooth="yes"/>
      <point x="478" y="-125"/>
      <point x="451" y="-95"/>
      <point x="457" y="-60" type="qcurve" smooth="yes"/>
      <point x="490" y="129" type="line"/>
      <point x="430.5" y="141.5" name="inserted"/>
      <point x="336.0" y="196.5"/>
      <point x="301" y="239" type="qcurve"/>
    </contour>
    <contour>
      <point x="654" y="263" type="line"/>
      <point x="725" y="266"/>
      <point x="819" y="303"/>
      <point x="846.5" y="328.5" type="qcurve" smooth="yes" name="inserted"/>
      <point x="874" y="354"/>
      <point x="896" y="410"/>
      <point x="896" y="433" type="qcurve" smooth="yes"/>
      <point x="896" y="470"/>
      <point x="836" y="511"/>
      <point x="788" y="522" type="qcurve" smooth="yes"/>
      <point x="766" y="527"/>
      <point x="724" y="534"/>
      <point x="702" y="537" type="qcurve"/>
    </contour>
    <contour>
      <point x="633" y="941" type="line"/>
      <point x="577" y="939"/>
      <point x="494" y="913"/>
      <point x="467.0" y="893.0" type="qcurve" smooth="yes" name="inserted"/>
      <point x="440" y="873"/>
      <point x="414" y="822"/>
      <point x="414" y="795" type="qcurve" smooth="yes"/>
      <point x="414" y="760"/>
      <point x="473" y="724"/>
      <point x="523" y="713" type="qcurve" smooth="yes"/>
      <point x="539.0" y="709.5" name="inserted"/>
      <point x="573.0" y="703.5"/>
      <point x="591" y="701" type="qcurve"/>
    </contour>
  </outline>
</glyph>
<glyph name="asterisk" format="2">
  <advance width="1228"/>
  <unicode hex="002A"/>
  <outline>
    <contour>
      <point x="878" y="411" type="qcurve" smooth="yes"/>
      <point x="834" y="385"/>
      <point x="776" y="411"/>
      <point x="762" y="446" type="qcurve" smooth="yes"/>
      <point x="667" y="683" type="line"/>
      <point x="492" y="441" type="line" smooth="yes"/>
      <point x="466" y="405"/>
      <point x="394" y="392"/>
      <point x="361" y="419" type="qcurve" smooth="yes"/>
      <point x="328" y="447"/>
      <point x="326" y="518"/>
      <point x="360" y="547" type="qcurve" smooth="yes"/>
      <point x="593" y="750" type="line"/>
      <point x="330" y="804" type="line" smooth="yes"/>
      <point x="291" y="812"/>
      <point x="269" y="868"/>
      <point x="289" y="913" type="qcurve" smooth="yes"/>
      <point x="310" y="959"/>
      <point x="368" y="981"/>
      <point x="403" y="964" type="qcurve" smooth="yes"/>
      <point x="641" y="842" type="line"/>
      <point x="652" y="1119" type="line" smooth="yes"/>
      <point x="654" y="1161"/>
      <point x="707" y="1209"/>
      <point x="754" y="1209" type="qcurve" smooth="yes"/>
      <point x="801" y="1209"/>
      <point x="839" y="1161"/>
      <point x="827" y="1119" type="qcurve" smooth="yes"/>
      <point x="741" y="837" type="line"/>
      <point x="1004" y="955" type="line" smooth="yes"/>
      <point x="1045" y="973"/>
      <point x="1107" y="942"/>
      <point x="1113" y="897" type="qcurve" smooth="yes"/>
      <point x="1120" y="852"/>
      <point x="1079" y="795"/>
      <point x="1037" y="787" type="qcurve" smooth="yes"/>
      <point x="754" y="739" type="line"/>
      <point x="908" y="527" type="line" smooth="yes"/>
      <point x="931" y="496"/>
      <point x="921" y="437"/>
    </contour>
  </outline>
</glyph>
<glyph name="comma" format="2">
  <advance width="1228"/>
  <unicode hex="002C"/>
  <outline>
    <contour>
      <point x="387" y="-253" type="line" smooth="yes"/>
      <point x="372.5" y="-273.5" name="inserted"/>
      <point x="335.0" y="-294.0"/>
      <point x="312" y="-294" type="qcurve" smooth="yes"/>
      <point x="283" y="-294"/>
      <point x="249" y="-260"/>
      <point x="261" y="-228" type="qcurve" smooth="yes"/>
      <point x="445" y="254" type="line" smooth="yes"/>
      <point x="452.5" y="274.0" name="inserted"/>
      <point x="482.0" y="294.0"/>
      <point x="504" y="294" type="qcurve" smooth="yes"/>
      <point x="712" y="294" type="line" smooth="yes"/>
      <point x="737" y="294"/>
      <point x="747" y="257"/>
      <point x="729" y="231" type="qcurve" smooth="yes"/>
    </contour>
  </outline>
</glyph>
<glyph name="two" format="2">
  <advance width="1228"/>
  <unicode hex="0032"/>
  <outline>
    <contour>
      <point x="180" y="0" type="line" smooth="yes"/>
      <point x="146" y="0"/>
      <point x="122" y="30"/>
      <point x="128" y="68" type="qcurve" smooth="yes"/>
      <point x="131.5" y="87.0" name="inserted"/>
      <point x="144.0" y="114.0"/>
      <point x="153" y="122" type="qcurve" smooth="yes"/>
      <point x="672" y="568" type="line" smooth="yes"/>
      <point x="714" y="604"/>
      <point x="779" y="666"/>
      <point x="803.5" y="694.0" type="qcurve" smooth="yes" name="inserted"/>
      <point x="828" y="722"/>
      <point x="863" y="775"/>
      <point x="874" y="803" type="qcurve" smooth="yes"/>
      <point x="882" y="825"/>
      <point x="894" y="874"/>
      <point x="894" y="901" type="qcurve" smooth="yes"/>
      <point x="894" y="975"/>
      <point x="796" y="1061"/>
      <point x="698" y="1061" type="qcurve" smooth="yes"/>
      <point x="638" y="1061"/>
      <point x="528" y="1026"/>
      <point x="480" y="1000" type="qcurve"/>
      <point x="461" y="895" type="line" smooth="yes"/>
      <point x="455" y="860"/>
      <point x="417" y="830"/>
      <point x="375" y="830" type="qcurve" smooth="yes"/>
      <point x="333" y="830"/>
      <point x="305" y="860"/>
      <point x="311" y="895" type="qcurve" smooth="yes"/>
      <point x="338" y="1048" type="line" smooth="yes"/>
      <point x="341.5" y="1067.5" name="inserted"/>
      <point x="358.0" y="1095.0"/>
      <point x="371" y="1103" type="qcurve" smooth="yes"/>
      <point x="450" y="1153"/>
      <point x="621" y="1209"/>
      <point x="713" y="1209" type="qcurve" smooth="yes"/>
      <point x="790" y="1209"/>
      <point x="916" y="1169"/>
      <point x="960.5" y="1132.0" type="qcurve" smooth="yes" name="inserted"/>
      <point x="1005" y="1095"/>
      <point x="1053" y="988"/>
      <point x="1053" y="921" type="qcurve" smooth="yes"/>
      <point x="1053" y="886"/>
      <point x="1041" y="814"/>
      <point x="1028" y="779" type="qcurve" smooth="yes"/>
      <point x="1013" y="738"/>
      <point x="968" y="664"/>
      <point x="937.0" y="627.5" type="qcurve" smooth="yes" name="inserted"/>
      <point x="906" y="591"/>
      <point x="828" y="517"/>
      <point x="781" y="477" type="qcurve" smooth="yes"/>
      <point x="384" y="136" type="line"/>
      <point x="830" y="136" type="line"/>
      <point x="856" y="282" type="line" smooth="yes"/>
      <point x="862" y="317"/>
      <point x="901" y="347"/>
      <point x="943" y="347" type="qcurve" smooth="yes"/>
      <point x="985" y="347"/>
      <point x="1012" y="317"/>
      <point x="1006" y="282" type="qcurve" smooth="yes"/>
      <point x="968" y="68" type="line" smooth="yes"/>
      <point x="962" y="30"/>
      <point x="928" y="0"/>
      <point x="894" y="0" type="qcurve" smooth="yes"/>
    </contour>
  </outline>
</glyph>
<glyph name="three" format="2">
  <advance width="1228"/>
  <unicode hex="0033"/>
  <outline>
    <contour>
      <point x="534" y="-22" type="qcurve" smooth="yes"/>
      <point x="484" y="-22"/>
      <point x="386" y="-4"/>
      <point x="340.5" y="12.5" type="qcurve" smooth="yes" name="inserted"/>
      <point x="295" y="29"/>
      <point x="213" y="75"/>
      <point x="179" y="104" type="qcurve" smooth="yes"/>
      <point x="156" y="123"/>
      <point x="157" y="169"/>
      <point x="175" y="197" type="qcurve" smooth="yes"/>
      <point x="184" y="210"/>
      <point x="205" y="233"/>
      <point x="217.0" y="238.5" type="qcurve" smooth="yes" name="inserted"/>
      <point x="229" y="244"/>
      <point x="255" y="241"/>
      <point x="268" y="229" type="qcurve" smooth="yes"/>
      <point x="325" y="181"/>
      <point x="470" y="126"/>
      <point x="550" y="126" type="qcurve" smooth="yes"/>
      <point x="632" y="126"/>
      <point x="745" y="175"/>
      <point x="780.0" y="213.5" type="qcurve" smooth="yes" name="inserted"/>
      <point x="815" y="252"/>
      <point x="846" y="347"/>
      <point x="846" y="392" type="qcurve" smooth="yes"/>
      <point x="846" y="473"/>
      <point x="733" y="555"/>
      <point x="630" y="555" type="qcurve" smooth="yes"/>
      <point x="557" y="555" type="line" smooth="yes"/>
      <point x="523" y="555"/>
      <point x="500" y="585"/>
      <point x="506" y="623" type="qcurve" smooth="yes"/>
      <point x="513" y="661"/>
      <point x="547" y="691"/>
      <point x="581" y="691" type="qcurve" smooth="yes"/>
      <point x="636" y="691" type="line" smooth="yes"/>
      <point x="712" y="691"/>
      <point x="815" y="732"/>
      <point x="846.5" y="764.0" type="qcurve" smooth="yes" name="inserted"/>
      <point x="878" y="796"/>
      <point x="904" y="877"/>
      <point x="904" y="917" type="qcurve" smooth="yes"/>
      <point x="904" y="985"/>
      <point x="805" y="1061"/>
      <point x="708" y="1061" type="qcurve" smooth="yes"/>
      <point x="649.5" y="1061.0" name="inserted"/>
      <point x="547.5" y="1041.5"/>
      <point x="504" y="1022" type="qcurve"/>
      <point x="492" y="955" type="line" smooth="yes"/>
      <point x="486" y="920"/>
      <point x="447" y="890"/>
      <point x="405" y="890" type="qcurve" smooth="yes"/>
      <point x="363" y="890"/>
      <point x="336" y="920"/>
      <point x="342" y="955" type="qcurve" smooth="yes"/>
      <point x="362" y="1069" type="line" smooth="yes"/>
      <point x="366" y="1091"/>
      <point x="383" y="1117"/>
      <point x="399" y="1126" type="qcurve" smooth="yes"/>
      <point x="475" y="1168"/>
      <point x="630" y="1209"/>
      <point x="723" y="1209" type="qcurve" smooth="yes"/>
      <point x="800" y="1209"/>
      <point x="924" y="1168"/>
      <point x="967.5" y="1130.5" type="qcurve" smooth="yes" name="inserted"/>
      <point x="1011" y="1093"/>
      <point x="1058" y="990"/>
      <point x="1058" y="927" type="qcurve" smooth="yes"/>
      <point x="1058" y="827"/>
      <point x="961" y="672"/>
      <point x="858" y="627" type="qcurve"/>
      <point x="927" y="596"/>
      <point x="1003" y="476"/>
      <point x="1003" y="395" type="qcurve" smooth="yes"/>
      <point x="1003" y="350"/>
      <point x="982" y="253"/>
      <point x="959.0" y="207.0" type="qcurve" smooth="yes" name="inserted"/>
      <point x="936" y="161"/>
      <point x="863" y="77"/>
      <point x="811.0" y="46.0" type="qcurve" smooth="yes" name="inserted"/>
      <point x="759" y="15"/>
      <point x="621" y="-22"/>
    </contour>
  </outline>
</glyph>
<glyph name="five" format="2">
  <advance width="1228"/>
  <unicode hex="0035"/>
  <outline>
    <contour>
      <point x="265" y="226" type="qcurve" smooth="yes"/>
      <point x="321" y="181"/>
      <point x="462" y="126"/>
      <point x="540" y="126" type="qcurve" smooth="yes"/>
      <point x="622" y="126"/>
      <point x="742" y="185"/>
      <point x="780.0" y="230.5" type="qcurve" smooth="yes" name="inserted"/>
      <point x="818" y="276"/>
      <point x="855" y="389"/>
      <point x="855" y="443" type="qcurve" smooth="yes"/>
      <point x="855" y="531"/>
      <point x="749" y="638"/>
      <point x="650" y="638" type="qcurve" smooth="yes"/>
      <point x="578" y="638"/>
      <point x="465" y="601"/>
      <point x="410" y="567" type="qcurve" smooth="yes"/>
      <point x="401.5" y="562.0" name="inserted"/>
      <point x="376.0" y="557.0"/>
      <point x="359" y="557" type="qcurve" smooth="yes"/>
      <point x="317" y="557"/>
      <point x="287" y="587"/>
      <point x="295" y="622" type="qcurve" smooth="yes"/>
      <point x="403" y="1122" type="line" smooth="yes"/>
      <point x="411" y="1157"/>
      <point x="448" y="1187"/>
      <point x="490" y="1187" type="qcurve" smooth="yes"/>
      <point x="1024" y="1187" type="line" smooth="yes"/>
      <point x="1058" y="1187"/>
      <point x="1082" y="1157"/>
      <point x="1075" y="1119" type="qcurve" smooth="yes"/>
      <point x="1068" y="1081"/>
      <point x="1034" y="1051"/>
      <point x="1000" y="1051" type="qcurve" smooth="yes"/>
      <point x="534" y="1051" type="line"/>
      <point x="465" y="735" type="line"/>
      <point x="517" y="762"/>
      <point x="622" y="786"/>
      <point x="679" y="786" type="qcurve" smooth="yes"/>
      <point x="759" y="786"/>
      <point x="883" y="737"/>
      <point x="926.0" y="693.0" type="qcurve" smooth="yes" name="inserted"/>
      <point x="969" y="649"/>
      <point x="1013" y="528"/>
      <point x="1013" y="457" type="qcurve" smooth="yes"/>
      <point x="1013" y="404"/>
      <point x="988" y="291"/>
      <point x="962.5" y="237.5" type="qcurve" smooth="yes" name="inserted"/>
      <point x="937" y="184"/>
      <point x="858" y="90"/>
      <point x="804.5" y="54.5" type="qcurve" smooth="yes" name="inserted"/>
      <point x="751" y="19"/>
      <point x="613" y="-22"/>
      <point x="529" y="-22" type="qcurve" smooth="yes"/>
      <point x="431" y="-22"/>
      <point x="250" y="43"/>
      <point x="181" y="97" type="qcurve" smooth="yes"/>
      <point x="159" y="114"/>
      <point x="154" y="161"/>
      <point x="178" y="196" type="qcurve" smooth="yes"/>
      <point x="202" y="231"/>
      <point x="245" y="243"/>
    </contour>
  </outline>
</glyph>
<glyph name="six" format="2">
  <advance width="1228"/>
  <unicode hex="0036"/>
  <outline>
    <contour>
      <point x="663" y="583" type="qcurve" smooth="yes"/>
      <point x="606" y="583"/>
      <point x="499" y="547"/>
      <point x="457.5" y="513.5" type="qcurve" smooth="yes" name="inserted"/>
      <point x="416" y="480"/>
      <point x="367" y="382"/>
      <point x="367" y="319" type="qcurve" smooth="yes"/>
      <point x="367" y="276"/>
      <point x="396" y="205"/>
      <point x="423.5" y="179.5" type="qcurve" smooth="yes" name="inserted"/>
      <point x="451" y="154"/>
      <point x="531" y="126"/>
      <point x="582" y="126" type="qcurve" smooth="yes"/>
      <point x="663" y="126"/>
      <point x="777" y="180"/>
      <point x="812.0" y="221.0" type="qcurve" smooth="yes" name="inserted"/>
      <point x="847" y="262"/>
      <point x="879" y="359"/>
      <point x="879" y="401" type="qcurve" smooth="yes"/>
      <point x="879" y="485"/>
      <point x="767" y="583"/>
    </contour>
    <contour>
      <point x="1062" y="1062" type="qcurve" smooth="yes"/>
      <point x="923" y="1055"/>
      <point x="704" y="982"/>
      <point x="621.5" y="921.0" type="qcurve" smooth="yes" name="inserted"/>
      <point x="539" y="860"/>
      <point x="428" y="697"/>
      <point x="397" y="600" type="qcurve"/>
      <point x="462" y="664"/>
      <point x="619" y="731"/>
      <point x="705" y="731" type="qcurve" smooth="yes"/>
      <point x="778" y="731"/>
      <point x="901" y="685"/>
      <point x="944.5" y="644.0" type="qcurve" smooth="yes" name="inserted"/>
      <point x="988" y="603"/>
      <point x="1037" y="487"/>
      <point x="1037" y="417" type="qcurve" smooth="yes"/>
      <point x="1037" y="336"/>
      <point x="976" y="179"/>
      <point x="916.5" y="117.0" type="qcurve" smooth="yes" name="inserted"/>
      <point x="857" y="55"/>
      <point x="681" y="-22"/>
      <point x="566" y="-22" type="qcurve" smooth="yes"/>
      <point x="513" y="-22"/>
      <point x="414" y="3"/>
      <point x="372.5" y="28.0" type="qcurve" smooth="yes" name="inserted"/>
      <point x="331" y="53"/>
      <point x="266" y="127"/>
      <point x="246" y="176" type="qcurve" smooth="yes"/>
      <point x="229.5" y="215.5" name="inserted"/>
      <point x="213.0" y="313.5"/>
      <point x="213" y="372" type="qcurve" smooth="yes"/>
      <point x="213" y="468"/>
      <point x="256" y="663"/>
      <point x="300.5" y="754.0" type="qcurve" smooth="yes" name="inserted"/>
      <point x="345" y="845"/>
      <point x="481" y="1005"/>
      <point x="575.0" y="1065.5" type="qcurve" smooth="yes" name="inserted"/>
      <point x="669" y="1126"/>
      <point x="909" y="1202"/>
      <point x="1057" y="1209" type="qcurve" smooth="yes"/>
      <point x="1079" y="1210"/>
      <point x="1110" y="1183"/>
      <point x="1110" y="1142" type="qcurve" smooth="yes"/>
      <point x="1110" y="1097"/>
      <point x="1082" y="1063"/>
    </contour>
  </outline>
</glyph>
<glyph name="colon" format="2">
  <advance width="1228"/>
  <unicode hex="003A"/>
  <outline>
    <contour>
      <point x="544" y="-22" type="qcurve" smooth="yes"/>
      <point x="512" y="-22"/>
      <point x="459" y="1"/>
      <point x="439.5" y="20.5" type="qcurve" smooth="yes" name="inserted"/>
      <point x="420" y="40"/>
      <point x="398" y="94"/>
      <point x="398" y="124" type="qcurve" smooth="yes"/>
      <point x="398" y="164"/>
      <point x="431" y="234"/>
      <point x="459.0" y="260.0" type="qcurve" smooth="yes" name="inserted"/>
      <point x="487" y="286"/>
      <point x="557" y="316"/>
      <point x="595" y="316" type="qcurve" smooth="yes"/>
      <point x="627" y="316"/>
      <point x="680" y="293"/>
      <point x="699.5" y="273.5" type="qcurve" smooth="yes" name="inserted"/>
      <point x="719" y="254"/>
      <point x="740" y="202"/>
      <point x="740" y="172" type="qcurve" smooth="yes"/>
      <point x="740" y="132"/>
      <point x="707" y="61"/>
      <point x="680.0" y="35.0" type="qcurve" smooth="yes" name="inserted"/>
      <point x="653" y="9"/>
      <point x="582" y="-22"/>
    </contour>
    <contour>
      <point x="656" y="608" type="qcurve" smooth="yes"/>
      <point x="624" y="608"/>
      <point x="571" y="631"/>
      <point x="551.5" y="650.5" type="qcurve" smooth="yes" name="inserted"/>
      <point x="532" y="670"/>
      <point x="510" y="724"/>
      <point x="510" y="754" type="qcurve" smooth="yes"/>
      <point x="510" y="794"/>
      <point x="543" y="864"/>
      <point x="571.0" y="890.0" type="qcurve" smooth="yes" name="inserted"/>
      <point x="599" y="916"/>
      <point x="669" y="946"/>
      <point x="707" y="946" type="qcurve" smooth="yes"/>
      <point x="739" y="946"/>
      <point x="792" y="923"/>
      <point x="811.5" y="903.5" type="qcurve" smooth="yes" name="inserted"/>
      <point x="831" y="884"/>
      <point x="852" y="832"/>
      <point x="852" y="802" type="qcurve" smooth="yes"/>
      <point x="852" y="762"/>
      <point x="819" y="691"/>
      <point x="792.0" y="665.0" type="qcurve" smooth="yes" name="inserted"/>
      <point x="765" y="639"/>
      <point x="694" y="608"/>
    </contour>
  </outline>
</glyph>
<glyph name="semicolon" format="2">
  <advance width="1228"/>
  <unicode hex="003B"/>
  <outline>
    <contour>
      <point x="656" y="608" type="qcurve" smooth="yes"/>
      <point x="624" y="608"/>
      <point x="571" y="631"/>
      <point x="551.5" y="650.5" type="qcurve" smooth="yes" name="inserted"/>
      <point x="532" y="670"/>
      <point x="510" y="724"/>
      <point x="510" y="754" type="qcurve" smooth="yes"/>
      <point x="510" y="794"/>
      <point x="543" y="864"/>
      <point x="571.0" y="890.0" type="qcurve" smooth="yes" name="inserted"/>
      <point x="599" y="916"/>
      <point x="669" y="946"/>
      <point x="707" y="946" type="qcurve" smooth="yes"/>
      <point x="739" y="946"/>
      <point x="792" y="923"/>
      <point x="811.5" y="903.5" type="qcurve" smooth="yes" name="inserted"/>
      <point x="831" y="884"/>
      <point x="852" y="832"/>
      <point x="852" y="802" type="qcurve" smooth="yes"/>
      <point x="852" y="762"/>
      <point x="819" y="691"/>
      <point x="792.0" y="665.0" type="qcurve" smooth="yes" name="inserted"/>
      <point x="765" y="639"/>
      <point x="694" y="608"/>
    </contour>
    <contour>
      <point x="387" y="-253" type="line" smooth="yes"/>
      <point x="372.5" y="-273.5" name="inserted"/>
      <point x="335.0" y="-294.0"/>
      <point x="312" y="-294" type="qcurve" smooth="yes"/>
      <point x="283" y="-294"/>
      <point x="249" y="-260"/>
      <point x="261" y="-228" type="qcurve" smooth="yes"/>
      <point x="445" y="254" type="line" smooth="yes"/>
      <point x="452.5" y="274.0" name="inserted"/>
      <point x="482.0" y="294.0"/>
      <point x="504" y="294" type="qcurve" smooth="yes"/>
      <point x="712" y="294" type="line" smooth="yes"/>
      <point x="737" y="294"/>
      <point x="747" y="257"/>
      <point x="729" y="231" type="qcurve" smooth="yes"/>
    </contour>
  </outline>
</glyph>
<glyph name="B" format="2">
  <advance width="1228"/>
  <unicode hex="0042"/>
  <outline>
    <contour>
      <point x="73" y="0" type="line" smooth="yes"/>
      <point x="39" y="0"/>
      <point x="15" y="30"/>
      <point x="21" y="68" type="qcurve" smooth="yes"/>
      <point x="28" y="106"/>
      <point x="62" y="136"/>
      <point x="96" y="136" type="qcurve" smooth="yes"/>
      <point x="218" y="136" type="line"/>
      <point x="380" y="1051" type="line"/>
      <point x="258" y="1051" type="line" smooth="yes"/>
      <point x="224" y="1051"/>
      <point x="200" y="1081"/>
      <point x="207" y="1119" type="qcurve" smooth="yes"/>
      <point x="214" y="1157"/>
      <point x="248" y="1187"/>
      <point x="282" y="1187" type="qcurve" smooth="yes"/>
      <point x="773" y="1187" type="line" smooth="yes"/>
      <point x="853" y="1187"/>
      <point x="973" y="1147"/>
      <point x="1013.5" y="1111.5" type="qcurve" smooth="yes" name="inserted"/>
      <point x="1054" y="1076"/>
      <point x="1094" y="977"/>
      <point x="1094" y="918" type="qcurve" smooth="yes"/>
      <point x="1094" y="811"/>
      <point x="997" y="674"/>
      <point x="914" y="631" type="qcurve"/>
      <point x="997" y="602"/>
      <point x="1086" y="478"/>
      <point x="1086" y="390" type="qcurve" smooth="yes"/>
      <point x="1086" y="324"/>
      <point x="1041" y="185"/>
      <point x="989.5" y="128.5" type="qcurve" smooth="yes" name="inserted"/>
      <point x="938" y="72"/>
      <point x="771" y="0"/>
      <point x="650" y="0" type="qcurve" smooth="yes"/>
    </contour>
    <contour>
      <point x="633" y="136" type="line" smooth="yes"/>
      <point x="702" y="136"/>
      <point x="811" y="170"/>
      <point x="849.5" y="202.5" type="qcurve" smooth="yes" name="inserted"/>
      <point x="888" y="235"/>
      <point x="929" y="328"/>
      <point x="929" y="388" type="qcurve" smooth="yes"/>
      <point x="929.0" y="466.5" name="inserted"/>
      <point x="820.0" y="545.0"/>
      <point x="711" y="545" type="qcurve" smooth="yes"/>
      <point x="441" y="545" type="line"/>
      <point x="368" y="136" type="line"/>
    </contour>
    <contour>
      <point x="672" y="681" type="line" smooth="yes"/>
      <point x="744" y="681"/>
      <point x="847" y="718"/>
      <point x="879.0" y="749.5" type="qcurve" smooth="yes" name="inserted"/>
      <point x="911" y="781"/>
      <point x="941" y="863"/>
      <point x="941" y="907" type="qcurve" smooth="yes"/>
      <point x="941" y="978"/>
      <point x="841" y="1051"/>
      <point x="737" y="1051" type="qcurve" smooth="yes"/>
      <point x="530" y="1051" type="line"/>
      <point x="465" y="681" type="line"/>
    </contour>
  </outline>
</glyph>
<glyph name="C" format="2">
  <advance width="1228"/>
  <unicode hex="0043"/>
  <outline>
    <contour>
      <point x="997" y="814" type="qcurve" smooth="yes"/>
      <point x="1006" y="863"/>
      <point x="988" y="953"/>
      <point x="960.0" y="987.0" type="qcurve" smooth="yes" name="inserted"/>
      <point x="932" y="1021"/>
      <point x="833" y="1061"/>
      <point x="761" y="1061" type="qcurve" smooth="yes"/>
      <point x="689" y="1061"/>
      <point x="564" y="1013"/>
      <point x="512.5" y="971.0" type="qcurve" smooth="yes" name="inserted"/>
      <point x="461" y="929"/>
      <point x="381" y="814"/>
      <point x="353.5" y="747.5" type="qcurve" smooth="yes" name="inserted"/>
      <point x="326" y="681"/>
      <point x="298" y="534"/>
      <point x="298" y="461" type="qcurve" smooth="yes"/>
      <point x="298" y="382"/>
      <point x="337" y="258"/>
      <point x="374.0" y="215.0" type="qcurve" smooth="yes" name="inserted"/>
      <point x="411" y="172"/>
      <point x="518" y="126"/>
      <point x="586" y="126" type="qcurve" smooth="yes"/>
      <point x="686" y="126"/>
      <point x="874" y="188"/>
      <point x="956" y="242" type="qcurve" smooth="yes"/>
      <point x="979" y="257"/>
      <point x="1027" y="242"/>
      <point x="1045" y="207" type="qcurve" smooth="yes"/>
      <point x="1062" y="172"/>
      <point x="1053" y="124"/>
      <point x="1023" y="106" type="qcurve" smooth="yes"/>
      <point x="916" y="43"/>
      <point x="691" y="-22"/>
      <point x="575" y="-22" type="qcurve" smooth="yes"/>
      <point x="474" y="-22"/>
      <point x="312" y="46"/>
      <point x="256.0" y="108.0" type="qcurve" smooth="yes" name="inserted"/>
      <point x="200" y="170"/>
      <point x="140" y="345"/>
      <point x="140" y="453" type="qcurve" smooth="yes"/>
      <point x="140" y="550"/>
      <point x="180" y="737"/>
      <point x="218.0" y="821.0" type="qcurve" smooth="yes" name="inserted"/>
      <point x="256" y="905"/>
      <point x="367" y="1047"/>
      <point x="437.0" y="1099.0" type="qcurve" smooth="yes" name="inserted"/>
      <point x="507" y="1151"/>
      <point x="676" y="1209"/>
      <point x="772" y="1209" type="qcurve" smooth="yes"/>
      <point x="871" y="1209"/>
      <point x="1006" y="1140"/>
      <point x="1044" y="1080" type="qcurve"/>
      <point x="1055" y="1144" type="line" smooth="yes"/>
      <point x="1061" y="1179"/>
      <point x="1100" y="1209"/>
      <point x="1142" y="1209" type="qcurve" smooth="yes"/>
      <point x="1184" y="1209"/>
      <point x="1211" y="1179"/>
      <point x="1205" y="1144" type="qcurve" smooth="yes"/>
      <point x="1147" y="814" type="line" smooth="yes"/>
      <point x="1141" y="779"/>
      <point x="1103" y="749"/>
      <point x="1061" y="749" type="qcurve" smooth="yes"/>
      <point x="1019" y="749"/>
      <point x="991" y="779"/>
    </contour>
  </outline>
</glyph>
<glyph name="E" format="2">
  <advance width="1228"/>
  <unicode hex="0045"/>
  <outline>
    <contour>
      <point x="360" y="1051" type="line"/>
      <point x="258" y="1051" type="line" smooth="yes"/>
      <point x="224" y="1051"/>
      <point x="200" y="1081"/>
      <point x="207" y="1119" type="qcurve" smooth="yes"/>
      <point x="214" y="1157"/>
      <point x="248" y="1187"/>
      <point x="282" y="1187" type="qcurve" smooth="yes"/>
      <point x="1156" y="1187" type="line" smooth="yes"/>
      <point x="1190" y="1187"/>
      <point x="1214" y="1157"/>
      <point x="1207" y="1119" type="qcurve" smooth="yes"/>
      <point x="1162" y="865" type="line" smooth="yes"/>
      <point x="1156" y="830"/>
      <point x="1118" y="800"/>
      <point x="1076" y="800" type="qcurve" smooth="yes"/>
      <point x="1034" y="800"/>
      <point x="1006" y="830"/>
      <point x="1012" y="865" type="qcurve" smooth="yes"/>
      <point x="1045" y="1051" type="line"/>
      <point x="510" y="1051" type="line"/>
      <point x="444" y="680" type="line"/>
      <point x="694" y="680" type="line"/>
      <point x="710" y="771" type="line" smooth="yes"/>
      <point x="717" y="806"/>
      <point x="755" y="836"/>
      <point x="797" y="836" type="qcurve" smooth="yes"/>
      <point x="839" y="836"/>
      <point x="867" y="806"/>
      <point x="860" y="771" type="qcurve" smooth="yes"/>
      <point x="804" y="453" type="line" smooth="yes"/>
      <point x="798" y="418"/>
      <point x="760" y="388"/>
      <point x="718" y="388" type="qcurve" smooth="yes"/>
      <point x="676" y="388"/>
      <point x="648" y="418"/>
      <point x="654" y="453" type="qcurve" smooth="yes"/>
      <point x="670" y="544" type="line"/>
      <point x="420" y="544" type="line"/>
      <point x="348" y="136" type="line"/>
      <point x="903" y="136" type="line"/>
      <point x="944" y="365" type="line" smooth="yes"/>
      <point x="950" y="400"/>
      <point x="988" y="430"/>
      <point x="1030" y="430" type="qcurve" smooth="yes"/>
      <point x="1072" y="430"/>
      <point x="1100" y="400"/>
      <point x="1094" y="365" type="qcurve" smooth="yes"/>
      <point x="1041" y="68" type="line" smooth="yes"/>
      <point x="1035" y="30"/>
      <point x="1001" y="0"/>
      <point x="967" y="0" type="qcurve" smooth="yes"/>
      <point x="73" y="0" type="line" smooth="yes"/>
      <point x="39" y="0"/>
      <point x="15" y="30"/>
      <point x="21" y="68" type="qcurve" smooth="yes"/>
      <point x="28" y="106"/>
      <point x="62" y="136"/>
      <point x="96" y="136" type="qcurve" smooth="yes"/>
      <point x="198" y="136" type="line"/>
    </contour>
  </outline>
</glyph>
<glyph name="F" format="2">
  <advance width="1228"/>
  <unicode hex="0046"/>
  <outline>
    <contour>
      <point x="390" y="1051" type="line"/>
      <point x="258" y="1051" type="line" smooth="yes"/>
      <point x="224" y="1051"/>
      <point x="200" y="1081"/>
      <point x="207" y="1119" type="qcurve" smooth="yes"/>
      <point x="214" y="1157"/>
      <point x="248" y="1187"/>
      <point x="282" y="1187" type="qcurve" smooth="yes"/>
      <point x="1186" y="1187" type="line" smooth="yes"/>
      <point x="1220" y="1187"/>
      <point x="1244" y="1157"/>
      <point x="1237" y="1119" type="qcurve" smooth="yes"/>
      <point x="1190" y="855" type="line" smooth="yes"/>
      <point x="1184" y="820"/>
      <point x="1146" y="790"/>
      <point x="1104" y="790" type="qcurve" smooth="yes"/>
      <point x="1062" y="790"/>
      <point x="1034" y="820"/>
      <point x="1040" y="855" type="qcurve" smooth="yes"/>
      <point x="1075" y="1051" type="line"/>
      <point x="540" y="1051" type="line"/>
      <point x="471" y="660" type="line"/>
      <point x="721" y="660" type="line"/>
      <point x="737" y="751" type="line" smooth="yes"/>
      <point x="743" y="786"/>
      <point x="781" y="816"/>
      <point x="823" y="816" type="qcurve" smooth="yes"/>
      <point x="865" y="816"/>
      <point x="893" y="786"/>
      <point x="887" y="751" type="qcurve" smooth="yes"/>
      <point x="831" y="433" type="line" smooth="yes"/>
      <point x="825" y="398"/>
      <point x="786" y="368"/>
      <point x="744" y="368" type="qcurve" smooth="yes"/>
      <point x="702" y="368"/>
      <point x="675" y="398"/>
      <point x="681" y="433" type="qcurve" smooth="yes"/>
      <point x="697" y="524" type="line"/>
      <point x="447" y="524" type="line"/>
      <point x="378" y="136" type="line"/>
      <point x="610" y="136" type="line" smooth="yes"/>
      <point x="644" y="136"/>
      <point x="668" y="106"/>
      <point x="661" y="68" type="qcurve" smooth="yes"/>
      <point x="655" y="30"/>
      <point x="621" y="0"/>
      <point x="587" y="0" type="qcurve" smooth="yes"/>
      <point x="73" y="0" type="line" smooth="yes"/>
      <point x="39" y="0"/>
      <point x="15" y="30"/>
      <point x="21" y="68" type="qcurve" smooth="yes"/>
      <point x="28" y="106"/>
      <point x="62" y="136"/>
      <point x="96" y="136" type="qcurve" smooth="yes"/>
      <point x="228" y="136" type="line"/>
    </contour>
  </outline>
</glyph>
<glyph name="J" format="2">
  <advance width="1228"/>
  <unicode hex="004A"/>
  <outline>
    <contour>
      <point x="518" y="1051" type="line" smooth="yes"/>
      <point x="484" y="1051"/>
      <point x="460" y="1081"/>
      <point x="467" y="1119" type="qcurve" smooth="yes"/>
      <point x="474" y="1157"/>
      <point x="508" y="1187"/>
      <point x="542" y="1187" type="qcurve" smooth="yes"/>
      <point x="1234" y="1187" type="line" smooth="yes"/>
      <point x="1268" y="1187"/>
      <point x="1292" y="1157"/>
      <point x="1285" y="1119" type="qcurve" smooth="yes"/>
      <point x="1278" y="1081"/>
      <point x="1244" y="1051"/>
      <point x="1210" y="1051" type="qcurve" smooth="yes"/>
      <point x="1009" y="1051" type="line"/>
      <point x="882" y="333" type="line" smooth="yes"/>
      <point x="851" y="156"/>
      <point x="631" y="-22"/>
      <point x="435" y="-22" type="qcurve" smooth="yes"/>
      <point x="376" y="-22"/>
      <point x="270" y="2"/>
      <point x="225.0" y="23.0" type="qcurve" smooth="yes" name="inserted"/>
      <point x="180" y="44"/>
      <point x="109" y="102"/>
      <point x="84" y="135" type="qcurve" smooth="yes"/>
      <point x="77.5" y="144.5" name="inserted"/>
      <point x="74.0" y="170.0"/>
      <point x="77" y="186" type="qcurve" smooth="yes"/>
      <point x="126" y="465" type="line" smooth="yes"/>
      <point x="133" y="500"/>
      <point x="171" y="530"/>
      <point x="213" y="530" type="qcurve" smooth="yes"/>
      <point x="255" y="530"/>
      <point x="283" y="500"/>
      <point x="276" y="465" type="qcurve" smooth="yes"/>
      <point x="230" y="201" type="line"/>
      <point x="265.0" y="163.5" name="inserted"/>
      <point x="373.5" y="126.0"/>
      <point x="447" y="126" type="qcurve" smooth="yes"/>
      <point x="580" y="126"/>
      <point x="717" y="244"/>
      <point x="738" y="363" type="qcurve" smooth="yes"/>
      <point x="859" y="1051" type="line"/>
    </contour>
  </outline>
</glyph>
<glyph name="R" format="2">
  <advance width="1228"/>
  <unicode hex="0052"/>
  <outline>
    <contour>
      <point x="530" y="1051" type="line"/>
      <point x="459" y="651" type="line"/>
      <point x="662" y="651" type="line" smooth="yes"/>
      <point x="756" y="651"/>
      <point x="876" y="696"/>
      <point x="910.5" y="731.0" type="qcurve" smooth="yes" name="inserted"/>
      <point x="945" y="766"/>
      <point x="971" y="851"/>
      <point x="971" y="891" type="qcurve" smooth="yes"/>
      <point x="971" y="969"/>
      <point x="854" y="1051"/>
      <point x="743" y="1051" type="qcurve" smooth="yes"/>
    </contour>
    <contour>
      <point x="788" y="546" type="qcurve"/>
      <point x="813" y="534"/>
      <point x="855" y="494"/>
      <point x="871" y="470" type="qcurve" smooth="yes"/>
      <point x="888" y="443"/>
      <point x="916" y="381"/>
      <point x="928.0" y="349.5" type="qcurve" smooth="yes" name="inserted"/>
      <point x="940" y="318"/>
      <point x="961" y="257"/>
      <point x="972" y="230" type="qcurve" smooth="yes"/>
      <point x="988" y="188"/>
      <point x="1027" y="136"/>
      <point x="1056" y="136" type="qcurve" smooth="yes"/>
      <point x="1078" y="136" type="line" smooth="yes"/>
      <point x="1112" y="136"/>
      <point x="1136" y="106"/>
      <point x="1129" y="68" type="qcurve" smooth="yes"/>
      <point x="1123" y="30"/>
      <point x="1089" y="0"/>
      <point x="1055" y="0" type="qcurve" smooth="yes"/>
      <point x="996" y="0" type="line" smooth="yes"/>
      <point x="953" y="0"/>
      <point x="873" y="66"/>
      <point x="843" y="146" type="qcurve" smooth="yes"/>
      <point x="831" y="179"/>
      <point x="808" y="247"/>
      <point x="796.0" y="280.0" type="qcurve" smooth="yes" name="inserted"/>
      <point x="784" y="313"/>
      <point x="757" y="374"/>
      <point x="740" y="401" type="qcurve" smooth="yes"/>
      <point x="720" y="434"/>
      <point x="672" y="478"/>
      <point x="643.0" y="491.0" type="qcurve" smooth="yes" name="inserted"/>
      <point x="614" y="504"/>
      <point x="542" y="515"/>
      <point x="497" y="515" type="qcurve" smooth="yes"/>
      <point x="435" y="515" type="line"/>
      <point x="368" y="136" type="line"/>
      <point x="498" y="136" type="line" smooth="yes"/>
      <point x="532" y="136"/>
      <point x="556" y="106"/>
      <point x="549" y="68" type="qcurve" smooth="yes"/>
      <point x="543" y="30"/>
      <point x="509" y="0"/>
      <point x="475" y="0" type="qcurve" smooth="yes"/>
      <point x="73" y="0" type="line" smooth="yes"/>
      <point x="39" y="0"/>
      <point x="15" y="30"/>
      <point x="21" y="68" type="qcurve" smooth="yes"/>
      <point x="28" y="106"/>
      <point x="62" y="136"/>
      <point x="96" y="136" type="qcurve" smooth="yes"/>
      <point x="218" y="136" type="line"/>
      <point x="380" y="1051" type="line"/>
      <point x="258" y="1051" type="line" smooth="yes"/>
      <point x="224" y="1051"/>
      <point x="200" y="1081"/>
      <point x="207" y="1119" type="qcurve" smooth="yes"/>
      <point x="214" y="1157"/>
      <point x="248" y="1187"/>
      <point x="282" y="1187" type="qcurve" smooth="yes"/>
      <point x="778" y="1187" type="line" smooth="yes"/>
      <point x="863" y="1187"/>
      <point x="994" y="1146"/>
      <point x="1038.5" y="1109.0" type="qcurve" smooth="yes" name="inserted"/>
      <point x="1083" y="1072"/>
      <point x="1129" y="968"/>
      <point x="1129" y="906" type="qcurve" smooth="yes"/>
      <point x="1129" y="832"/>
      <point x="1078" y="713"/>
      <point x="1032.5" y="667.5" type="qcurve" smooth="yes" name="inserted"/>
      <point x="987" y="622"/>
      <point x="862" y="561"/>
    </contour>
  </outline>
</glyph>
<glyph name="V" format="2">
  <advance width="1228"/>
  <unicode hex="0056"/>
  <outline>
    <contour>
      <point x="188" y="1051" type="line" smooth="yes"/>
      <point x="154" y="1051"/>
      <point x="130" y="1081"/>
      <point x="137" y="1119" type="qcurve" smooth="yes"/>
      <point x="144" y="1157"/>
      <point x="178" y="1187"/>
      <point x="212" y="1187" type="qcurve" smooth="yes"/>
      <point x="586" y="1187" type="line" smooth="yes"/>
      <point x="620" y="1187"/>
      <point x="644" y="1157"/>
      <point x="637" y="1119" type="qcurve" smooth="yes"/>
      <point x="630" y="1081"/>
      <point x="596" y="1051"/>
      <point x="562" y="1051" type="qcurve" smooth="yes"/>
      <point x="418" y="1051" type="line"/>
      <point x="568" y="167" type="line"/>
      <point x="1033" y="1051" type="line"/>
      <point x="936" y="1051" type="line" smooth="yes"/>
      <point x="902" y="1051"/>
      <point x="878" y="1081"/>
      <point x="885" y="1119" type="qcurve" smooth="yes"/>
      <point x="892" y="1157"/>
      <point x="926" y="1187"/>
      <point x="960" y="1187" type="qcurve" smooth="yes"/>
      <point x="1294" y="1187" type="line" smooth="yes"/>
      <point x="1328" y="1187"/>
      <point x="1352" y="1157"/>
      <point x="1345" y="1119" type="qcurve" smooth="yes"/>
      <point x="1338" y="1081"/>
      <point x="1304" y="1051"/>
      <point x="1270" y="1051" type="qcurve" smooth="yes"/>
      <point x="1196" y="1051" type="line"/>
      <point x="659" y="43" type="line" smooth="yes"/>
      <point x="640" y="8"/>
      <point x="583" y="-22"/>
      <point x="540" y="-22" type="qcurve" smooth="yes"/>
      <point x="497" y="-22"/>
      <point x="451" y="8"/>
      <point x="445" y="43" type="qcurve" smooth="yes"/>
      <point x="267" y="1051" type="line"/>
    </contour>
  </outline>
</glyph>
<glyph name="Y" format="2">
  <advance width="1228"/>
  <unicode hex="0059"/>
  <outline>
    <contour>
      <point x="556" y="499" type="line"/>
      <point x="312" y="1051" type="line"/>
      <point x="238" y="1051" type="line" smooth="yes"/>
      <point x="204" y="1051"/>
      <point x="180" y="1081"/>
      <point x="187" y="1119" type="qcurve" smooth="yes"/>
      <point x="194" y="1157"/>
      <point x="228" y="1187"/>
      <point x="262" y="1187" type="qcurve" smooth="yes"/>
      <point x="596" y="1187" type="line" smooth="yes"/>
      <point x="630" y="1187"/>
      <point x="654" y="1157"/>
      <point x="647" y="1119" type="qcurve" smooth="yes"/>
      <point x="640" y="1081"/>
      <point x="606" y="1051"/>
      <point x="572" y="1051" type="qcurve" smooth="yes"/>
      <point x="475" y="1051" type="line"/>
      <point x="653" y="642" type="line"/>
      <point x="977" y="1051" type="line"/>
      <point x="916" y="1051" type="line" smooth="yes"/>
      <point x="882" y="1051"/>
      <point x="858" y="1081"/>
      <point x="865" y="1119" type="qcurve" smooth="yes"/>
      <point x="872" y="1157"/>
      <point x="906" y="1187"/>
      <point x="940" y="1187" type="qcurve" smooth="yes"/>
      <point x="1244" y="1187" type="line" smooth="yes"/>
      <point x="1278" y="1187"/>
      <point x="1302" y="1157"/>
      <point x="1295" y="1119" type="qcurve" smooth="yes"/>
      <point x="1288" y="1081"/>
      <point x="1254" y="1051"/>
      <point x="1220" y="1051" type="qcurve" smooth="yes"/>
      <point x="1156" y="1051" type="line"/>
      <point x="704" y="486" type="line"/>
      <point x="642" y="136" type="line"/>
      <point x="878" y="136" type="line" smooth="yes"/>
      <point x="912" y="136"/>
      <point x="936" y="106"/>
      <point x="929" y="68" type="qcurve" smooth="yes"/>
      <point x="923" y="30"/>
      <point x="889" y="0"/>
      <point x="855" y="0" type="qcurve" smooth="yes"/>
      <point x="253" y="0" type="line" smooth="yes"/>
      <point x="219" y="0"/>
      <point x="195" y="30"/>
      <point x="201" y="68" type="qcurve" smooth="yes"/>
      <point x="208" y="106"/>
      <point x="242" y="136"/>
      <point x="276" y="136" type="qcurve" smooth="yes"/>
      <point x="492" y="136" type="line"/>
    </contour>
  </outline>
</glyph>
<glyph name="backslash" format="2">
  <advance width="1228"/>
  <unicode hex="005C"/>
  <outline>
    <contour>
      <point x="360" y="1271" type="line" smooth="yes"/>
      <point x="356" y="1286"/>
      <point x="369" y="1309"/>
      <point x="381.5" y="1317.5" type="qcurve" smooth="yes" name="inserted"/>
      <point x="394" y="1326"/>
      <point x="427" y="1335"/>
      <point x="444" y="1335" type="qcurve" smooth="yes"/>
      <point x="464" y="1335"/>
      <point x="495" y="1321"/>
      <point x="500" y="1305" type="qcurve" smooth="yes"/>
      <point x="910" y="-233" type="line" smooth="yes"/>
      <point x="914" y="-248"/>
      <point x="901" y="-271"/>
      <point x="888.0" y="-279.5" type="qcurve" smooth="yes" name="inserted"/>
      <point x="875" y="-288"/>
      <point x="841" y="-297"/>
      <point x="825" y="-297" type="qcurve" smooth="yes"/>
      <point x="805" y="-297"/>
      <point x="775" y="-283"/>
      <point x="770" y="-267" type="qcurve" smooth="yes"/>
    </contour>
  </outline>
</glyph>
<glyph name="underscore" format="2">
  <advance width="1228"/>
  <unicode hex="005F"/>
  <outline>
    <contour>
      <point x="-44" y="-393" type="line" smooth="yes"/>
      <point x="-50" y="-393"/>
      <point x="-57" y="-389"/>
      <point x="-58.5" y="-381.5" type="qcurve" smooth="yes" name="inserted"/>
      <point x="-60" y="-374"/>
      <point x="-59" y="-348"/>
      <point x="-55" y="-325" type="qcurve" smooth="yes"/>
      <point x="-47" y="-280"/>
      <point x="-31" y="-257"/>
      <point x="-20" y="-257" type="qcurve" smooth="yes"/>
      <point x="1217" y="-257" type="line" smooth="yes"/>
      <point x="1223" y="-257"/>
      <point x="1231" y="-261"/>
      <point x="1232.5" y="-268.5" type="qcurve" smooth="yes" name="inserted"/>
      <point x="1234" y="-276"/>
      <point x="1232" y="-303"/>
      <point x="1228" y="-325" type="qcurve" smooth="yes"/>
      <point x="1224" y="-348"/>
      <point x="1217" y="-374"/>
      <point x="1212.5" y="-381.5" type="qcurve" smooth="yes" name="inserted"/>
      <point x="1208" y="-389"/>
      <point x="1199" y="-393"/>
      <point x="1193" y="-393" type="qcurve" smooth="yes"/>
    </contour>
  </outline>
</glyph>
<glyph name="grave" format="2">
  <advance width="1228"/>
  <unicode hex="0060"/>
  <outline>
    <contour>
      <point x="942" y="1133" type="line" smooth="yes"/>
      <point x="959" y="1123"/>
      <point x="968" y="1088"/>
      <point x="961" y="1071" type="qcurve" smooth="yes"/>
      <point x="954" y="1054"/>
      <point x="925" y="1033"/>
      <point x="906" y="1039" type="qcurve" smooth="yes"/>
      <point x="425" y="1202" type="line" smooth="yes"/>
      <point x="415" y="1205"/>
      <point x="401" y="1220"/>
      <point x="400.0" y="1232.5" type="qcurve" smooth="yes" name="inserted"/>
      <point x="399" y="1245"/>
      <point x="410" y="1282"/>
      <point x="425" y="1309" type="qcurve" smooth="yes"/>
      <point x="441" y="1337"/>
      <point x="467" y="1366"/>
      <point x="478.5" y="1371.0" type="qcurve" smooth="yes" name="inserted"/>
      <point x="490" y="1376"/>
      <point x="513" y="1370"/>
      <point x="526" y="1363" type="qcurve" smooth="yes"/>
    </contour>
  </outline>
</glyph>
<glyph name="c" format="2">
  <advance width="1228"/>
  <unicode hex="0063"/>
  <outline>
    <contour>
      <point x="911" y="238" type="qcurve" smooth="yes"/>
      <point x="934" y="254"/>
      <point x="984" y="246"/>
      <point x="1004" y="211" type="qcurve" smooth="yes"/>
      <point x="1022.5" y="178.0" name="inserted"/>
      <point x="1010.0" y="125.0"/>
      <point x="979" y="105" type="qcurve" smooth="yes"/>
      <point x="887" y="46"/>
      <point x="660" y="-22"/>
      <point x="545" y="-22" type="qcurve" smooth="yes"/>
      <point x="449" y="-22"/>
      <point x="295" y="39"/>
      <point x="242.0" y="93.0" type="qcurve" smooth="yes" name="inserted"/>
      <point x="189" y="147"/>
      <point x="132" y="294"/>
      <point x="132" y="380" type="qcurve" smooth="yes"/>
      <point x="132" y="490"/>
      <point x="214" y="694"/>
      <point x="288.5" y="773.0" type="qcurve" smooth="yes" name="inserted"/>
      <point x="363" y="852"/>
      <point x="572" y="946"/>
      <point x="700" y="946" type="qcurve" smooth="yes"/>
      <point x="792" y="946"/>
      <point x="932" y="873"/>
      <point x="971" y="811" type="qcurve"/>
      <point x="984" y="881" type="line" smooth="yes"/>
      <point x="991" y="916"/>
      <point x="1028" y="946"/>
      <point x="1070" y="946" type="qcurve" smooth="yes"/>
      <point x="1112" y="946"/>
      <point x="1140" y="916"/>
      <point x="1134" y="881" type="qcurve" smooth="yes"/>
      <point x="1083" y="591" type="line" smooth="yes"/>
      <point x="1077" y="556"/>
      <point x="1041" y="526"/>
      <point x="999" y="526" type="qcurve" smooth="yes"/>
      <point x="957" y="526"/>
      <point x="929" y="556"/>
      <point x="934" y="591" type="qcurve" smooth="yes"/>
      <point x="941" y="636"/>
      <point x="917" y="712"/>
      <point x="886.5" y="739.5" type="qcurve" smooth="yes" name="inserted"/>
      <point x="856" y="767"/>
      <point x="758" y="798"/>
      <point x="689" y="798" type="qcurve" smooth="yes"/>
      <point x="603" y="798"/>
      <point x="457" y="732"/>
      <point x="403.5" y="675.5" type="qcurve" smooth="yes" name="inserted"/>
      <point x="350" y="619"/>
      <point x="290" y="472"/>
      <point x="290" y="391" type="qcurve" smooth="yes"/>
      <point x="290" y="332"/>
      <point x="327" y="235"/>
      <point x="362.0" y="200.0" type="qcurve" smooth="yes" name="inserted"/>
      <point x="397" y="165"/>
      <point x="497" y="126"/>
      <point x="561" y="126" type="qcurve" smooth="yes"/>
      <point x="653" y="126"/>
      <point x="830" y="183"/>
    </contour>
  </outline>
</glyph>
<glyph name="l" format="2">
  <advance width="1228"/>
  <unicode hex="006C"/>
  <outline>
    <contour>
      <point x="1009" y="65" type="qcurve" smooth="yes"/>
      <point x="932.5" y="21.5" name="inserted"/>
      <point x="782.5" y="-22.0"/>
      <point x="709" y="-22" type="qcurve" smooth="yes"/>
      <point x="578" y="-22"/>
      <point x="440" y="111"/>
      <point x="440" y="229" type="qcurve" smooth="yes"/>
      <point x="440" y="247"/>
      <point x="443" y="287"/>
      <point x="447" y="307" type="qcurve" smooth="yes"/>
      <point x="600" y="1176" type="line"/>
      <point x="327" y="1176" type="line" smooth="yes"/>
      <point x="293" y="1176"/>
      <point x="269" y="1206"/>
      <point x="276" y="1244" type="qcurve" smooth="yes"/>
      <point x="283" y="1282"/>
      <point x="317" y="1312"/>
      <point x="351" y="1312" type="qcurve" smooth="yes"/>
      <point x="711" y="1312" type="line" smooth="yes"/>
      <point x="745" y="1312"/>
      <point x="769" y="1282"/>
      <point x="762" y="1244" type="qcurve" smooth="yes"/>
      <point x="597" y="310" type="line" smooth="yes"/>
      <point x="594" y="291"/>
      <point x="590" y="258"/>
      <point x="590" y="243" type="qcurve" smooth="yes"/>
      <point x="590" y="180"/>
      <point x="655" y="124"/>
      <point x="724" y="124" type="qcurve" smooth="yes"/>
      <point x="782" y="124"/>
      <point x="894" y="162"/>
      <point x="956" y="200" type="qcurve" smooth="yes"/>
      <point x="981" y="215"/>
      <point x="1025" y="196"/>
      <point x="1039" y="161" type="qcurve" smooth="yes"/>
      <point x="1053" y="125"/>
      <point x="1037" y="81"/>
    </contour>
  </outline>
</glyph>
<glyph name="o" format="2">
  <advance width="1228"/>
  <unicode hex="006F"/>
  <outline>
    <contour>
      <point x="126" y="386" type="qcurve" smooth="yes"/>
      <point x="126" y="496"/>
      <point x="209" y="698"/>
      <point x="284.5" y="775.5" type="qcurve" smooth="yes" name="inserted"/>
      <point x="360" y="853"/>
      <point x="571" y="946"/>
      <point x="700" y="946" type="qcurve" smooth="yes"/>
      <point x="794" y="946"/>
      <point x="950" y="885"/>
      <point x="1006.0" y="830.5" type="qcurve" smooth="yes" name="inserted"/>
      <point x="1062" y="776"/>
      <point x="1124" y="626"/>
      <point x="1124" y="538" type="qcurve" smooth="yes"/>
      <point x="1124" y="428"/>
      <point x="1041" y="226"/>
      <point x="965.5" y="148.5" type="qcurve" smooth="yes" name="inserted"/>
      <point x="890" y="71"/>
      <point x="679" y="-22"/>
      <point x="550" y="-22" type="qcurve" smooth="yes"/>
      <point x="456" y="-22"/>
      <point x="300" y="39"/>
      <point x="244.0" y="93.5" type="qcurve" smooth="yes" name="inserted"/>
      <point x="188" y="148"/>
      <point x="126" y="297"/>
    </contour>
    <contour>
      <point x="283" y="394" type="qcurve" smooth="yes"/>
      <point x="283" y="334"/>
      <point x="322" y="236"/>
      <point x="358.5" y="200.5" type="qcurve" smooth="yes" name="inserted"/>
      <point x="395" y="165"/>
      <point x="500" y="126"/>
      <point x="566" y="126" type="qcurve" smooth="yes"/>
      <point x="654" y="126"/>
      <point x="801" y="192"/>
      <point x="854.5" y="248.0" type="qcurve" smooth="yes" name="inserted"/>
      <point x="908" y="304"/>
      <point x="967" y="450"/>
      <point x="967" y="530" type="qcurve" smooth="yes"/>
      <point x="967" y="590"/>
      <point x="928" y="688"/>
      <point x="891.5" y="723.5" type="qcurve" smooth="yes" name="inserted"/>
      <point x="855" y="759"/>
      <point x="750" y="798"/>
      <point x="684" y="798" type="qcurve" smooth="yes"/>
      <point x="596" y="798"/>
      <point x="449" y="732"/>
      <point x="395.5" y="676.0" type="qcurve" smooth="yes" name="inserted"/>
      <point x="342" y="620"/>
      <point x="283" y="474"/>
    </contour>
  </outline>
</glyph>
<glyph name="s" format="2">
  <advance width="1228"/>
  <unicode hex="0073"/>
  <outline>
    <contour>
      <point x="266" y="43" type="line" smooth="yes"/>
      <point x="260" y="8"/>
      <point x="222" y="-22"/>
      <point x="180" y="-22" type="qcurve" smooth="yes"/>
      <point x="138" y="-22"/>
      <point x="110" y="8"/>
      <point x="116" y="43" type="qcurve" smooth="yes"/>
      <point x="158" y="283" type="line" smooth="yes"/>
      <point x="164" y="318"/>
      <point x="203" y="348"/>
      <point x="245" y="348" type="qcurve" smooth="yes"/>
      <point x="267" y="348"/>
      <point x="287" y="329"/>
      <point x="292" y="307" type="qcurve" smooth="yes"/>
      <point x="312" y="210"/>
      <point x="464" y="123"/>
      <point x="603" y="123" type="qcurve" smooth="yes"/>
      <point x="682" y="123"/>
      <point x="786" y="158"/>
      <point x="816.5" y="184.0" type="qcurve" smooth="yes" name="inserted"/>
      <point x="847" y="210"/>
      <point x="871" y="269"/>
      <point x="871" y="293" type="qcurve" smooth="yes"/>
      <point x="871" y="330"/>
      <point x="811" y="371"/>
      <point x="763" y="382" type="qcurve" smooth="yes"/>
      <point x="717" y="393"/>
      <point x="622" y="404"/>
      <point x="574.5" y="409.5" type="qcurve" smooth="yes" name="inserted"/>
      <point x="527" y="415"/>
      <point x="432" y="431"/>
      <point x="385" y="447" type="qcurve" smooth="yes"/>
      <point x="351" y="458"/>
      <point x="294" y="490"/>
      <point x="273.0" y="512.0" type="qcurve" smooth="yes" name="inserted"/>
      <point x="252" y="534"/>
      <point x="229" y="591"/>
      <point x="229" y="629" type="qcurve" smooth="yes"/>
      <point x="229" y="691"/>
      <point x="279" y="805"/>
      <point x="329.0" y="849.0" type="qcurve" smooth="yes" name="inserted"/>
      <point x="379" y="893"/>
      <point x="532" y="946"/>
      <point x="634" y="946" type="qcurve" smooth="yes"/>
      <point x="734" y="946"/>
      <point x="883" y="887"/>
      <point x="931" y="836" type="qcurve"/>
      <point x="939" y="881" type="line" smooth="yes"/>
      <point x="945" y="916"/>
      <point x="983" y="946"/>
      <point x="1025" y="946" type="qcurve" smooth="yes"/>
      <point x="1067" y="946"/>
      <point x="1095" y="916"/>
      <point x="1089" y="881" type="qcurve" smooth="yes"/>
      <point x="1055" y="691" type="line" smooth="yes"/>
      <point x="1049" y="656"/>
      <point x="1011" y="626"/>
      <point x="969" y="626" type="qcurve" smooth="yes"/>
      <point x="951.5" y="626.0" name="inserted"/>
      <point x="929.5" y="639.0"/>
      <point x="925" y="652" type="qcurve" smooth="yes"/>
      <point x="910" y="695"/>
      <point x="855" y="753"/>
      <point x="816.0" y="770.0" type="qcurve" smooth="yes" name="inserted"/>
      <point x="777" y="787"/>
      <point x="677" y="801"/>
      <point x="619" y="801" type="qcurve" smooth="yes"/>
      <point x="560" y="801"/>
      <point x="473" y="776"/>
      <point x="444.5" y="755.5" type="qcurve" smooth="yes" name="inserted"/>
      <point x="416" y="735"/>
      <point x="389" y="682"/>
      <point x="389" y="655" type="qcurve" smooth="yes"/>
      <point x="389" y="620"/>
      <point x="448" y="584"/>
      <point x="498" y="573" type="qcurve" smooth="yes"/>
      <point x="544" y="563"/>
      <point x="637" y="552"/>
      <point x="684.0" y="546.5" type="qcurve" smooth="yes" name="inserted"/>
      <point x="731" y="541"/>
      <point x="825" y="525"/>
      <point x="870" y="510" type="qcurve" smooth="yes"/>
      <point x="904" y="499"/>
      <point x="963" y="466"/>
      <point x="985.0" y="443.0" type="qcurve" smooth="yes" name="inserted"/>
      <point x="1007" y="420"/>
      <point x="1031" y="359"/>
      <point x="1031" y="320" type="qcurve" smooth="yes"/>
      <point x="1031" y="287"/>
      <point x="1014" y="210"/>
      <point x="994.0" y="172.0" type="qcurve" smooth="yes" name="inserted"/>
      <point x="974" y="134"/>
      <point x="907" y="64"/>
      <point x="858.0" y="37.0" type="qcurve" smooth="yes" name="inserted"/>
      <point x="809" y="10"/>
      <point x="675" y="-22"/>
      <point x="588" y="-22" type="qcurve" smooth="yes"/>
      <point x="479" y="-22"/>
      <point x="327" y="38"/>
      <point x="276" y="99" type="qcurve"/>
    </contour>
  </outline>
</glyph>
<glyph name="bar" format="2">
  <advance width="1228"/>
  <unicode hex="007C"/>
  <outline>
    <contour>
      <point x="692" y="1269" type="line" smooth="yes"/>
      <point x="698" y="1304"/>
      <point x="737" y="1334"/>
      <point x="779" y="1334" type="qcurve" smooth="yes"/>
      <point x="821" y="1334"/>
      <point x="848" y="1304"/>
      <point x="842" y="1269" type="qcurve" smooth="yes"/>
      <point x="557" y="-350" type="line" smooth="yes"/>
      <point x="551" y="-385"/>
      <point x="512" y="-415"/>
      <point x="470" y="-415" type="qcurve" smooth="yes"/>
      <point x="428" y="-415"/>
      <point x="401" y="-385"/>
      <point x="407" y="-350" type="qcurve" smooth="yes"/>
    </contour>
  </outline>
</glyph>
<glyph name="exclamdown" format="2">
  <advance width="1228"/>
  <unicode hex="00A1"/>
  <outline>
    <contour>
      <point x="743" y="1209" type="qcurve" smooth="yes"/>
      <point x="772" y="1209"/>
      <point x="821" y="1188"/>
      <point x="838.5" y="1170.0" type="qcurve" smooth="yes" name="inserted"/>
      <point x="856" y="1152"/>
      <point x="875" y="1104"/>
      <point x="875" y="1077" type="qcurve" smooth="yes"/>
      <point x="875" y="1041"/>
      <point x="845" y="977"/>
      <point x="820.0" y="953.0" type="qcurve" smooth="yes" name="inserted"/>
      <point x="795" y="929"/>
      <point x="731" y="901"/>
      <point x="697" y="901" type="qcurve" smooth="yes"/>
      <point x="668" y="901"/>
      <point x="619" y="922"/>
      <point x="601.5" y="940.0" type="qcurve" smooth="yes" name="inserted"/>
      <point x="584" y="958"/>
      <point x="565" y="1006"/>
      <point x="565" y="1034" type="qcurve" smooth="yes"/>
      <point x="565" y="1070"/>
      <point x="595" y="1134"/>
      <point x="619.5" y="1157.5" type="qcurve" smooth="yes" name="inserted"/>
      <point x="644" y="1181"/>
      <point x="708" y="1209"/>
    </contour>
    <contour>
      <point x="485" y="-22" type="line" smooth="yes"/>
      <point x="462.5" y="-22.0" name="inserted"/>
      <point x="446.5" y="3.0"/>
      <point x="453" y="28" type="qcurve" smooth="yes"/>
      <point x="616" y="675" type="line" smooth="yes"/>
      <point x="622.0" y="699.0" name="inserted"/>
      <point x="655.0" y="723.0"/>
      <point x="682" y="723" type="qcurve" smooth="yes"/>
      <point x="708" y="723"/>
      <point x="733" y="698"/>
      <point x="731" y="675" type="qcurve" smooth="yes"/>
      <point x="665" y="28" type="line" smooth="yes"/>
      <point x="663.0" y="3.0" name="inserted"/>
      <point x="638.0" y="-22.0"/>
      <point x="615" y="-22" type="qcurve" smooth="yes"/>
    </contour>
  </outline>
</glyph>
<glyph name="sterling" format="2">
  <advance width="1228"/>
  <unicode hex="00A3"/>
  <outline>
    <contour>
      <point x="412" y="620" type="line"/>
      <point x="404" y="646"/>
      <point x="385" y="698"/>
      <point x="377.5" y="725.0" type="qcurve" smooth="yes" name="inserted"/>
      <point x="370" y="752"/>
      <point x="360" y="809"/>
      <point x="360" y="839" type="qcurve" smooth="yes"/>
      <point x="360" y="903"/>
      <point x="411" y="1035"/>
      <point x="460.5" y="1088.5" type="qcurve" smooth="yes" name="inserted"/>
      <point x="510" y="1142"/>
      <point x="656" y="1209"/>
      <point x="751" y="1209" type="qcurve" smooth="yes"/>
      <point x="845" y="1209"/>
      <point x="1008" y="1153"/>
      <point x="1065" y="1105" type="qcurve" smooth="yes"/>
      <point x="1074.0" y="1097.5" name="inserted"/>
      <point x="1080.0" y="1070.5"/>
      <point x="1077" y="1051" type="qcurve" smooth="yes"/>
      <point x="1054" y="924" type="line" smooth="yes"/>
      <point x="1048" y="889"/>
      <point x="1010" y="859"/>
      <point x="968" y="859" type="qcurve" smooth="yes"/>
      <point x="926" y="859"/>
      <point x="898" y="889"/>
      <point x="904" y="924" type="qcurve" smooth="yes"/>
      <point x="920" y="1014" type="line"/>
      <point x="888" y="1036"/>
      <point x="794" y="1061"/>
      <point x="734" y="1061" type="qcurve" smooth="yes"/>
      <point x="680" y="1061"/>
      <point x="597" y="1019"/>
      <point x="569.5" y="986.5" type="qcurve" smooth="yes" name="inserted"/>
      <point x="542" y="954"/>
      <point x="513" y="874"/>
      <point x="513" y="837" type="qcurve" smooth="yes"/>
      <point x="513" y="810"/>
      <point x="524" y="757"/>
      <point x="532.5" y="731.0" type="qcurve" smooth="yes" name="inserted"/>
      <point x="541" y="705"/>
      <point x="561" y="650"/>
      <point x="569" y="620" type="qcurve"/>
      <point x="884" y="620" type="line" smooth="yes"/>
      <point x="918" y="620"/>
      <point x="942" y="590"/>
      <point x="935" y="552" type="qcurve" smooth="yes"/>
      <point x="928" y="514"/>
      <point x="894" y="484"/>
      <point x="860" y="484" type="qcurve" smooth="yes"/>
      <point x="583" y="484" type="line"/>
      <point x="576" y="381"/>
      <point x="472" y="207"/>
      <point x="389" y="135" type="qcurve"/>
      <point x="427" y="148"/>
      <point x="490" y="158"/>
      <point x="518" y="158" type="qcurve" smooth="yes"/>
      <point x="552" y="158"/>
      <point x="609" y="147"/>
      <point x="635.5" y="140.5" type="qcurve" smooth="yes" name="inserted"/>
      <point x="662" y="134"/>
      <point x="713" y="123"/>
      <point x="740" y="123" type="qcurve" smooth="yes"/>
      <point x="774" y="123"/>
      <point x="851" y="147"/>
      <point x="901" y="179" type="qcurve" smooth="yes"/>
      <point x="921" y="192"/>
      <point x="961" y="170"/>
      <point x="974" y="148" type="qcurve" smooth="yes"/>
      <point x="987" y="125"/>
      <point x="984" y="73"/>
      <point x="959" y="56" type="qcurve" smooth="yes"/>
      <point x="889" y="10"/>
      <point x="784" y="-22"/>
      <point x="739" y="-22" type="qcurve" smooth="yes"/>
      <point x="706" y="-22"/>
      <point x="645" y="-10"/>
      <point x="613.5" y="-3.5" type="qcurve" smooth="yes" name="inserted"/>
      <point x="582" y="3"/>
      <point x="512" y="15"/>
      <point x="471" y="15" type="qcurve" smooth="yes"/>
      <point x="425" y="15"/>
      <point x="313" y="-6"/>
      <point x="241" y="-34" type="qcurve" smooth="yes"/>
      <point x="219" y="-42"/>
      <point x="177" y="-19"/>
      <point x="163" y="1" type="qcurve" smooth="yes"/>
      <point x="147" y="24"/>
      <point x="142" y="77"/>
      <point x="161" y="92" type="qcurve" smooth="yes"/>
      <point x="221" y="139"/>
      <point x="319" y="231"/>
      <point x="354.0" y="279.0" type="qcurve" smooth="yes" name="inserted"/>
      <point x="389" y="327"/>
      <point x="429" y="428"/>
      <point x="432" y="484" type="qcurve"/>
      <point x="288" y="484" type="line" smooth="yes"/>
      <point x="254" y="484"/>
      <point x="230" y="514"/>
      <point x="237" y="552" type="qcurve" smooth="yes"/>
      <point x="244" y="590"/>
      <point x="278" y="620"/>
      <point x="312" y="620" type="qcurve" smooth="yes"/>
    </contour>
  </outline>
</glyph>
<glyph name="guillemotleft" format="2">
  <advance width="1228"/>
  <unicode hex="00AB"/>
  <outline>
    <contour>
      <point x="434" y="560" type="line"/>
      <point x="558" y="275" type="line" smooth="yes"/>
      <point x="569" y="250"/>
      <point x="536" y="213"/>
      <point x="510" y="204" type="qcurve" smooth="yes"/>
      <point x="484" y="195"/>
      <point x="430" y="203"/>
      <point x="420" y="225" type="qcurve" smooth="yes"/>
      <point x="279" y="551" type="line" smooth="yes"/>
      <point x="274.0" y="563.0" name="inserted"/>
      <point x="278.5" y="587.0"/>
      <point x="288" y="599" type="qcurve" smooth="yes"/>
      <point x="543" y="925" type="line" smooth="yes"/>
      <point x="552" y="936"/>
      <point x="575" y="945"/>
      <point x="588.0" y="945.0" type="qcurve" smooth="yes" name="inserted"/>
      <point x="601" y="945"/>
      <point x="627" y="937"/>
      <point x="638" y="930" type="qcurve" smooth="yes"/>
      <point x="660" y="916"/>
      <point x="678" y="870"/>
      <point x="659" y="845" type="qcurve" smooth="yes"/>
    </contour>
    <contour>
      <point x="834" y="560" type="line"/>
      <point x="958" y="275" type="line" smooth="yes"/>
      <point x="969" y="250"/>
      <point x="936" y="213"/>
      <point x="910" y="204" type="qcurve" smooth="yes"/>
      <point x="884" y="195"/>
      <point x="830" y="203"/>
      <point x="820" y="225" type="qcurve" smooth="yes"/>
      <point x="679" y="551" type="line" smooth="yes"/>
      <point x="674.0" y="563.0" name="inserted"/>
      <point x="678.5" y="587.0"/>
      <point x="688" y="599" type="qcurve" smooth="yes"/>
      <point x="943" y="925" type="line" smooth="yes"/>
      <point x="952" y="936"/>
      <point x="975" y="945"/>
      <point x="988.0" y="945.0" type="qcurve" smooth="yes" name="inserted"/>
      <point x="1001" y="945"/>
      <point x="1027" y="937"/>
      <point x="1038" y="930" type="qcurve" smooth="yes"/>
      <point x="1060" y="916"/>
      <point x="1078" y="870"/>
      <point x="1059" y="845" type="qcurve" smooth="yes"/>
    </contour>
  </outline>
</glyph>
<glyph name="logicalnot" format="2">
  <advance width="1228"/>
  <unicode hex="00AC"/>
  <outline>
    <contour>
      <point x="258" y="709" type="line" smooth="yes"/>
      <point x="224" y="709"/>
      <point x="200" y="739"/>
      <point x="207" y="777" type="qcurve" smooth="yes"/>
      <point x="213" y="815"/>
      <point x="247" y="845"/>
      <point x="281" y="845" type="qcurve" smooth="yes"/>
      <point x="1093" y="845" type="line" smooth="yes"/>
      <point x="1127" y="845"/>
      <point x="1151" y="815"/>
      <point x="1145" y="777" type="qcurve" smooth="yes"/>
      <point x="1075" y="383" type="line" smooth="yes"/>
      <point x="1069" y="348"/>
      <point x="1031" y="318"/>
      <point x="989" y="318" type="qcurve" smooth="yes"/>
      <point x="947" y="318"/>
      <point x="919" y="348"/>
      <point x="925" y="383" type="qcurve" smooth="yes"/>
      <point x="983" y="709" type="line"/>
    </contour>
  </outline>
</glyph>
<glyph name="registered" format="2">
  <advance width="1228"/>
  <unicode hex="00AE"/>
  <outline>
    <contour>
      <point x="550" y="-22" type="qcurve" smooth="yes"/>
      <point x="438" y="-22"/>
      <point x="257" y="55"/>
      <point x="193.5" y="123.0" type="qcurve" smooth="yes" name="inserted"/>
      <point x="130" y="191"/>
      <point x="61" y="376"/>
      <point x="61" y="484" type="qcurve" smooth="yes"/>
      <point x="61" y="584"/>
      <point x="111" y="769"/>
      <point x="156.5" y="849.5" type="qcurve" smooth="yes" name="inserted"/>
      <point x="202" y="930"/>
      <point x="328" y="1062"/>
      <point x="404.0" y="1109.5" type="qcurve" smooth="yes" name="inserted"/>
      <point x="480" y="1157"/>
      <point x="654" y="1209"/>
      <point x="747" y="1209" type="qcurve" smooth="yes"/>
      <point x="859" y="1209"/>
      <point x="1040" y="1132"/>
      <point x="1103.5" y="1064.5" type="qcurve" smooth="yes" name="inserted"/>
      <point x="1167" y="997"/>
      <point x="1235" y="812"/>
      <point x="1235" y="705" type="qcurve" smooth="yes"/>
      <point x="1235" y="605"/>
      <point x="1185" y="420"/>
      <point x="1140.0" y="339.0" type="qcurve" smooth="yes" name="inserted"/>
      <point x="1095" y="258"/>
      <point x="969" y="125"/>
      <point x="893.0" y="77.5" type="qcurve" smooth="yes" name="inserted"/>
      <point x="817" y="30"/>
      <point x="643" y="-22"/>
    </contour>
    <contour>
      <point x="561" y="98" type="qcurve" smooth="yes"/>
      <point x="636" y="98"/>
      <point x="776" y="140"/>
      <point x="837.5" y="179.0" type="qcurve" smooth="yes" name="inserted"/>
      <point x="899" y="218"/>
      <point x="1001" y="328"/>
      <point x="1037.5" y="395.0" type="qcurve" smooth="yes" name="inserted"/>
      <point x="1074" y="462"/>
      <point x="1114" y="617"/>
      <point x="1114" y="702" type="qcurve" smooth="yes"/>
      <point x="1114" y="788"/>
      <point x="1062" y="930"/>
      <point x="1013.0" y="981.0" type="qcurve" smooth="yes" name="inserted"/>
      <point x="964" y="1032"/>
      <point x="824" y="1089"/>
      <point x="736" y="1089" type="qcurve" smooth="yes"/>
      <point x="624" y="1089"/>
      <point x="423" y="996"/>
      <point x="347.0" y="915.0" type="qcurve" smooth="yes" name="inserted"/>
      <point x="271" y="834"/>
      <point x="182" y="614"/>
      <point x="182" y="487" type="qcurve" smooth="yes"/>
      <point x="182" y="401"/>
      <point x="234" y="258"/>
      <point x="283.0" y="206.5" type="qcurve" smooth="yes" name="inserted"/>
      <point x="332" y="155"/>
      <point x="472" y="98"/>
    </contour>
    <contour>
      <point x="465" y="854" type="line" smooth="yes"/>
      <point x="471" y="888"/>
      <point x="507" y="917"/>
      <point x="541" y="917" type="qcurve" smooth="yes"/>
      <point x="718" y="917" type="line" smooth="yes"/>
      <point x="767" y="917"/>
      <point x="847" y="888"/>
      <point x="875.0" y="862.5" type="qcurve" smooth="yes" name="inserted"/>
      <point x="903" y="837"/>
      <point x="933" y="767"/>
      <point x="933" y="726" type="qcurve" smooth="yes"/>
      <point x="933" y="642"/>
      <point x="839" y="519"/>
      <point x="751" y="491" type="qcurve"/>
      <point x="842" y="369" type="line" smooth="yes"/>
      <point x="860" y="344"/>
      <point x="856" y="306"/>
      <point x="825" y="285" type="qcurve" smooth="yes"/>
      <point x="794" y="264"/>
      <point x="760" y="271"/>
      <point x="746" y="291" type="qcurve" smooth="yes"/>
      <point x="622" y="470" type="line"/>
      <point x="521" y="470" type="line"/>
      <point x="498" y="335" type="line" smooth="yes"/>
      <point x="492" y="300"/>
      <point x="458" y="270"/>
      <point x="423" y="270" type="qcurve" smooth="yes"/>
      <point x="388" y="270"/>
      <point x="367" y="300"/>
      <point x="374" y="335" type="qcurve" smooth="yes"/>
    </contour>
    <contour>
      <point x="580" y="800" type="line"/>
      <point x="542" y="587" type="line"/>
      <point x="648" y="587" type="line" smooth="yes"/>
      <point x="688" y="587"/>
      <point x="747" y="608"/>
      <point x="766.0" y="626.0" type="qcurve" smooth="yes" name="inserted"/>
      <point x="785" y="644"/>
      <point x="803" y="692"/>
      <point x="803" y="718" type="qcurve" smooth="yes"/>
      <point x="803" y="756"/>
      <point x="750" y="800"/>
      <point x="695" y="800" type="qcurve" smooth="yes"/>
    </contour>
  </outline>
</glyph>
<glyph name="paragraph" format="2">
  <advance width="1228"/>
  <unicode hex="00B6"/>
  <outline>
    <contour>
      <point x="544" y="-350" type="line" smooth="yes"/>
      <point x="538" y="-385"/>
      <point x="499" y="-415"/>
      <point x="457" y="-415" type="qcurve" smooth="yes"/>
      <point x="415" y="-415"/>
      <point x="388" y="-385"/>
      <point x="394" y="-350" type="qcurve" smooth="yes"/>
      <point x="544" y="502" type="line"/>
      <point x="466" y="504"/>
      <point x="341" y="546"/>
      <point x="297.0" y="583.0" type="qcurve" smooth="yes" name="inserted"/>
      <point x="253" y="620"/>
      <point x="205" y="724"/>
      <point x="205" y="789" type="qcurve" smooth="yes"/>
      <point x="205" y="867"/>
      <point x="263" y="1011"/>
      <point x="322.0" y="1066.0" type="qcurve" smooth="yes" name="inserted"/>
      <point x="381" y="1121"/>
      <point x="558" y="1187"/>
      <point x="677" y="1187" type="qcurve" smooth="yes"/>
      <point x="1193" y="1187" type="line" smooth="yes"/>
      <point x="1227" y="1187"/>
      <point x="1251" y="1157"/>
      <point x="1244" y="1119" type="qcurve" smooth="yes"/>
      <point x="1237" y="1081"/>
      <point x="1203" y="1051"/>
      <point x="1169" y="1051" type="qcurve" smooth="yes"/>
      <point x="1101" y="1051" type="line"/>
      <point x="854" y="-350" type="line" smooth="yes"/>
      <point x="848" y="-385"/>
      <point x="809" y="-415"/>
      <point x="767" y="-415" type="qcurve" smooth="yes"/>
      <point x="725" y="-415"/>
      <point x="698" y="-385"/>
      <point x="704" y="-350" type="qcurve" smooth="yes"/>
      <point x="951" y="1051" type="line"/>
      <point x="791" y="1051" type="line"/>
    </contour>
  </outline>
</glyph>
<glyph name="guillemotright" format="2">
  <advance width="1228"/>
  <unicode hex="00BB"/>
  <outline>
    <contour>
      <point x="456" y="590" type="line"/>
      <point x="332" y="875" type="line" smooth="yes"/>
      <point x="321" y="900"/>
      <point x="354" y="937"/>
      <point x="380" y="946" type="qcurve" smooth="yes"/>
      <point x="406" y="955"/>
      <point x="460" y="947"/>
      <point x="470" y="925" type="qcurve" smooth="yes"/>
      <point x="611" y="599" type="line" smooth="yes"/>
      <point x="616.0" y="586.5" name="inserted"/>
      <point x="611.5" y="562.5"/>
      <point x="602" y="551" type="qcurve" smooth="yes"/>
      <point x="347" y="225" type="line" smooth="yes"/>
      <point x="338" y="214"/>
      <point x="315" y="204"/>
      <point x="302.0" y="204.0" type="qcurve" smooth="yes" name="inserted"/>
      <point x="289" y="204"/>
      <point x="263" y="213"/>
      <point x="252" y="220" type="qcurve" smooth="yes"/>
      <point x="230" y="234"/>
      <point x="212" y="280"/>
      <point x="231" y="305" type="qcurve" smooth="yes"/>
    </contour>
    <contour>
      <point x="856" y="590" type="line"/>
      <point x="732" y="875" type="line" smooth="yes"/>
      <point x="721" y="900"/>
      <point x="754" y="937"/>
      <point x="780" y="946" type="qcurve" smooth="yes"/>
      <point x="806" y="955"/>
      <point x="860" y="947"/>
      <point x="870" y="925" type="qcurve" smooth="yes"/>
      <point x="1011" y="599" type="line" smooth="yes"/>
      <point x="1016.0" y="586.5" name="inserted"/>
      <point x="1011.5" y="562.5"/>
      <point x="1002" y="551" type="qcurve" smooth="yes"/>
      <point x="747" y="225" type="line" smooth="yes"/>
      <point x="738" y="214"/>
      <point x="715" y="204"/>
      <point x="702.0" y="204.0" type="qcurve" smooth="yes" name="inserted"/>
      <point x="689" y="204"/>
      <point x="663" y="213"/>
      <point x="652" y="220" type="qcurve" smooth="yes"/>
      <point x="630" y="234"/>
      <point x="612" y="280"/>
      <point x="631" y="305" type="qcurve" smooth="yes"/>
    </contour>
  </outline>
</glyph>
<glyph name="questiondown" format="2">
  <advance width="1228"/>
  <unicode hex="00BF"/>
  <outline>
    <contour>
      <point x="782" y="1209" type="qcurve" smooth="yes"/>
      <point x="808" y="1209"/>
      <point x="852" y="1190"/>
      <point x="867.5" y="1174.0" type="qcurve" smooth="yes" name="inserted"/>
      <point x="883" y="1158"/>
      <point x="901" y="1115"/>
      <point x="901" y="1090" type="qcurve" smooth="yes"/>
      <point x="901" y="1057"/>
      <point x="874" y="1000"/>
      <point x="851.5" y="979.0" type="qcurve" smooth="yes" name="inserted"/>
      <point x="829" y="958"/>
      <point x="771" y="933"/>
      <point x="741" y="933" type="qcurve" smooth="yes"/>
      <point x="715" y="933"/>
      <point x="671" y="952"/>
      <point x="655.0" y="968.0" type="qcurve" smooth="yes" name="inserted"/>
      <point x="639" y="984"/>
      <point x="622" y="1028"/>
      <point x="622" y="1053" type="qcurve" smooth="yes"/>
      <point x="622" y="1085"/>
      <point x="649" y="1142"/>
      <point x="671.5" y="1163.0" type="qcurve" smooth="yes" name="inserted"/>
      <point x="694" y="1184"/>
      <point x="752" y="1209"/>
    </contour>
    <contour>
      <point x="924" y="120" type="line" smooth="yes"/>
      <point x="920.5" y="99.5" name="inserted"/>
      <point x="903.0" y="71.5"/>
      <point x="889" y="64" type="qcurve" smooth="yes"/>
      <point x="806.5" y="21.0" name="inserted"/>
      <point x="634.5" y="-22.0"/>
      <point x="545" y="-22" type="qcurve" smooth="yes"/>
      <point x="470" y="-22"/>
      <point x="355" y="17"/>
      <point x="315.5" y="51.5" type="qcurve" smooth="yes" name="inserted"/>
      <point x="276" y="86"/>
      <point x="235" y="183"/>
      <point x="235" y="240" type="qcurve" smooth="yes"/>
      <point x="235" y="283"/>
      <point x="257" y="370"/>
      <point x="278" y="410" type="qcurve" smooth="yes"/>
      <point x="299" y="450"/>
      <point x="363" y="514"/>
      <point x="405.5" y="541.0" type="qcurve" smooth="yes" name="inserted"/>
      <point x="448" y="568"/>
      <point x="554" y="617"/>
      <point x="617" y="641" type="qcurve"/>
      <point x="651" y="777" type="line" smooth="yes"/>
      <point x="657" y="800"/>
      <point x="697" y="828"/>
      <point x="729" y="828" type="qcurve" smooth="yes"/>
      <point x="761" y="828"/>
      <point x="792" y="800"/>
      <point x="789" y="777" type="qcurve" smooth="yes"/>
      <point x="765" y="582" type="line" smooth="yes"/>
      <point x="763.0" y="563.0" name="inserted"/>
      <point x="743.5" y="537.5"/>
      <point x="726" y="531" type="qcurve" smooth="yes"/>
      <point x="652" y="503" type="line" smooth="yes"/>
      <point x="565" y="470"/>
      <point x="456" y="408"/>
      <point x="427" y="367" type="qcurve" smooth="yes"/>
      <point x="410" y="344"/>
      <point x="394" y="286"/>
      <point x="394" y="257" type="qcurve" smooth="yes"/>
      <point x="394" y="197"/>
      <point x="477" y="126"/>
      <point x="560" y="126" type="qcurve" smooth="yes"/>
      <point x="621" y="126"/>
      <point x="732" y="148"/>
      <point x="783" y="168" type="qcurve"/>
      <point x="798" y="252" type="line" smooth="yes"/>
      <point x="804" y="287"/>
      <point x="842" y="317"/>
      <point x="884" y="317" type="qcurve" smooth="yes"/>
      <point x="926" y="317"/>
      <point x="954" y="287"/>
      <point x="948" y="252" type="qcurve" smooth="yes"/>
    </contour>
  </outline>
</glyph>
<glyph name="Ccedilla" format="2">
  <advance width="1228"/>
  <unicode hex="00C7"/>
  <outline>
    <contour>
      <point x="495" y="-16" type="line"/>
      <point x="412" y="-4"/>
      <point x="280" y="73"/>
      <point x="234.0" y="134.0" type="qcurve" smooth="yes" name="inserted"/>
      <point x="188" y="195"/>
      <point x="140" y="356"/>
      <point x="140" y="453" type="qcurve" smooth="yes"/>
      <point x="140" y="550"/>
      <point x="180" y="737"/>
      <point x="218.0" y="821.0" type="qcurve" smooth="yes" name="inserted"/>
      <point x="256" y="905"/>
      <point x="367" y="1047"/>
      <point x="437.0" y="1099.0" type="qcurve" smooth="yes" name="inserted"/>
      <point x="507" y="1151"/>
      <point x="676" y="1209"/>
      <point x="772" y="1209" type="qcurve" smooth="yes"/>
      <point x="871" y="1209"/>
      <point x="1006" y="1140"/>
      <point x="1044" y="1080" type="qcurve"/>
      <point x="1055" y="1144" type="line" smooth="yes"/>
      <point x="1061" y="1179"/>
      <point x="1100" y="1209"/>
      <point x="1142" y="1209" type="qcurve" smooth="yes"/>
      <point x="1184" y="1209"/>
      <point x="1211" y="1179"/>
      <point x="1205" y="1144" type="qcurve" smooth="yes"/>
      <point x="1147" y="814" type="line" smooth="yes"/>
      <point x="1141" y="779"/>
      <point x="1103" y="749"/>
      <point x="1061" y="749" type="qcurve" smooth="yes"/>
      <point x="1019" y="749"/>
      <point x="991" y="779"/>
      <point x="997" y="814" type="qcurve" smooth="yes"/>
      <point x="1006" y="863"/>
      <point x="988" y="953"/>
      <point x="960.0" y="987.0" type="qcurve" smooth="yes" name="inserted"/>
      <point x="932" y="1021"/>
      <point x="833" y="1061"/>
      <point x="761" y="1061" type="qcurve" smooth="yes"/>
      <point x="689" y="1061"/>
      <point x="564" y="1013"/>
      <point x="512.5" y="971.0" type="qcurve" smooth="yes" name="inserted"/>
      <point x="461" y="929"/>
      <point x="381" y="814"/>
      <point x="353.5" y="747.5" type="qcurve" smooth="yes" name="inserted"/>
      <point x="326" y="681"/>
      <point x="298" y="534"/>
      <point x="298" y="461" type="qcurve" smooth="yes"/>
      <point x="298" y="382"/>
      <point x="337" y="258"/>
      <point x="374.0" y="215.0" type="qcurve" smooth="yes" name="inserted"/>
      <point x="411" y="172"/>
      <point x="518" y="126"/>
      <point x="586" y="126" type="qcurve" smooth="yes"/>
      <point x="686" y="126"/>
      <point x="874" y="188"/>
      <point x="956" y="242" type="qcurve" smooth="yes"/>
      <point x="979" y="257"/>
      <point x="1027" y="242"/>
      <point x="1045" y="207" type="qcurve" smooth="yes"/>
      <point x="1062" y="172"/>
      <point x="1053" y="124"/>
      <point x="1023" y="106" type="qcurve" smooth="yes"/>
      <point x="928.0" y="50.0" name="inserted"/>
      <point x="731.0" y="-13.0"/>
      <point x="629" y="-20" type="qcurve"/>
      <point x="613" y="-113" type="line"/>
      <point x="659" y="-112"/>
      <point x="726" y="-135"/>
      <point x="748.0" y="-154.5" type="qcurve" smooth="yes" name="inserted"/>
      <point x="770" y="-174"/>
      <point x="791" y="-228"/>
      <point x="791" y="-258" type="qcurve" smooth="yes"/>
      <point x="791" y="-273"/>
      <point x="785" y="-310"/>
      <point x="778.0" y="-329.0" type="qcurve" smooth="yes" name="inserted"/>
      <point x="771" y="-348"/>
      <point x="751" y="-383"/>
      <point x="737" y="-398" type="qcurve" smooth="yes"/>
      <point x="704" y="-433"/>
      <point x="595" y="-472"/>
      <point x="517" y="-472" type="qcurve" smooth="yes"/>
      <point x="450" y="-472"/>
      <point x="327" y="-448"/>
      <point x="279" y="-424" type="qcurve" smooth="yes"/>
      <point x="262" y="-415"/>
      <point x="261" y="-374"/>
      <point x="272" y="-354" type="qcurve" smooth="yes"/>
      <point x="282" y="-335"/>
      <point x="314" y="-311"/>
      <point x="331" y="-318" type="qcurve" smooth="yes"/>
      <point x="368" y="-333"/>
      <point x="467" y="-352"/>
      <point x="518" y="-352" type="qcurve" smooth="yes"/>
      <point x="578" y="-352"/>
      <point x="634" y="-306"/>
      <point x="634" y="-271" type="qcurve" smooth="yes"/>
      <point x="634" y="-237"/>
      <point x="564" y="-213"/>
      <point x="500" y="-217" type="qcurve"/>
      <point x="493" y="-217"/>
      <point x="479" y="-215"/>
      <point x="474.0" y="-210.5" type="qcurve" smooth="yes" name="inserted"/>
      <point x="469" y="-206"/>
      <point x="465" y="-189"/>
      <point x="468" y="-175" type="qcurve" smooth="yes"/>
    </contour>
  </outline>
</glyph>
<glyph name="Oslash" format="2">
  <advance width="1228"/>
  <unicode hex="00D8"/>
  <outline>
    <contour>
      <point x="1185" y="728" type="qcurve" smooth="yes"/>
      <point x="1185" y="638"/>
      <point x="1148" y="456"/>
      <point x="1112.0" y="373.0" type="qcurve" smooth="yes" name="inserted"/>
      <point x="1076" y="290"/>
      <point x="970" y="145"/>
      <point x="900.0" y="92.0" type="qcurve" smooth="yes" name="inserted"/>
      <point x="830" y="39"/>
      <point x="657" y="-22"/>
      <point x="555" y="-22" type="qcurve" smooth="yes"/>
      <point x="474" y="-22"/>
      <point x="340" y="20"/>
      <point x="286" y="60" type="qcurve"/>
      <point x="243" y="10" type="line" smooth="yes"/>
      <point x="219" y="-19"/>
      <point x="163" y="-24"/>
      <point x="137" y="-3" type="qcurve" smooth="yes"/>
      <point x="110" y="18"/>
      <point x="98" y="61"/>
      <point x="122" y="90" type="qcurve" smooth="yes"/>
      <point x="187" y="166" type="line"/>
      <point x="150" y="225"/>
      <point x="111" y="371"/>
      <point x="111" y="458" type="qcurve" smooth="yes"/>
      <point x="111" y="548"/>
      <point x="148" y="730"/>
      <point x="184.0" y="813.5" type="qcurve" smooth="yes" name="inserted"/>
      <point x="220" y="897"/>
      <point x="327" y="1041"/>
      <point x="397.0" y="1094.5" type="qcurve" smooth="yes" name="inserted"/>
      <point x="467" y="1148"/>
      <point x="640" y="1209"/>
      <point x="742" y="1209" type="qcurve" smooth="yes"/>
      <point x="821" y="1209"/>
      <point x="955" y="1167"/>
      <point x="1009" y="1128" type="qcurve"/>
      <point x="1053" y="1179" type="line" smooth="yes"/>
      <point x="1078" y="1208"/>
      <point x="1135" y="1213"/>
      <point x="1161" y="1192" type="qcurve" smooth="yes"/>
      <point x="1187" y="1171"/>
      <point x="1198" y="1128"/>
      <point x="1174" y="1099" type="qcurve" smooth="yes"/>
      <point x="1108" y="1021" type="line"/>
      <point x="1146" y="962"/>
      <point x="1185" y="815"/>
    </contour>
    <contour>
      <point x="1028" y="722" type="qcurve" smooth="yes"/>
      <point x="1028.0" y="770.0" name="inserted"/>
      <point x="1012.5" y="855.0"/>
      <point x="997" y="892" type="qcurve"/>
      <point x="387" y="179" type="line"/>
      <point x="422.5" y="152.5" name="inserted"/>
      <point x="512.0" y="126.0"/>
      <point x="566" y="126" type="qcurve" smooth="yes"/>
      <point x="641" y="126"/>
      <point x="769" y="176"/>
      <point x="820.0" y="219.5" type="qcurve" smooth="yes" name="inserted"/>
      <point x="871" y="263"/>
      <point x="949" y="380"/>
      <point x="975.5" y="446.0" type="qcurve" smooth="yes" name="inserted"/>
      <point x="1002" y="512"/>
      <point x="1028" y="654"/>
    </contour>
    <contour>
      <point x="268" y="465" type="qcurve" smooth="yes"/>
      <point x="268.0" y="415.5" name="inserted"/>
      <point x="283.0" y="331.0"/>
      <point x="298" y="296" type="qcurve"/>
      <point x="907" y="1009" type="line"/>
      <point x="871.0" y="1035.0" name="inserted"/>
      <point x="783.0" y="1061.0"/>
      <point x="731" y="1061" type="qcurve" smooth="yes"/>
      <point x="655" y="1061"/>
      <point x="528" y="1011"/>
      <point x="476.5" y="967.5" type="qcurve" smooth="yes" name="inserted"/>
      <point x="425" y="924"/>
      <point x="347" y="807"/>
      <point x="321.0" y="741.0" type="qcurve" smooth="yes" name="inserted"/>
      <point x="295" y="675"/>
      <point x="268" y="533"/>
    </contour>
  </outline>
</glyph>
<glyph name="Thorn" format="2">
  <advance width="1228"/>
  <unicode hex="00DE"/>
  <outline>
    <contour>
      <point x="444" y="1051" type="line"/>
      <point x="278" y="1051" type="line" smooth="yes"/>
      <point x="244" y="1051"/>
      <point x="220" y="1081"/>
      <point x="227" y="1119" type="qcurve" smooth="yes"/>
      <point x="234" y="1157"/>
      <point x="268" y="1187"/>
      <point x="302" y="1187" type="qcurve" smooth="yes"/>
      <point x="824" y="1187" type="line" smooth="yes"/>
      <point x="858" y="1187"/>
      <point x="882" y="1157"/>
      <point x="875" y="1119" type="qcurve" smooth="yes"/>
      <point x="868" y="1081"/>
      <point x="834" y="1051"/>
      <point x="800" y="1051" type="qcurve" smooth="yes"/>
      <point x="594" y="1051" type="line"/>
      <point x="572" y="927" type="line"/>
      <point x="793" y="927" type="line" smooth="yes"/>
      <point x="872" y="927"/>
      <point x="991" y="885"/>
      <point x="1031.0" y="848.5" type="qcurve" smooth="yes" name="inserted"/>
      <point x="1071" y="812"/>
      <point x="1111" y="712"/>
      <point x="1111" y="654" type="qcurve" smooth="yes"/>
      <point x="1111" y="614"/>
      <point x="1093" y="527"/>
      <point x="1073.5" y="485.0" type="qcurve" smooth="yes" name="inserted"/>
      <point x="1054" y="443"/>
      <point x="991" y="366"/>
      <point x="945.0" y="337.0" type="qcurve" smooth="yes" name="inserted"/>
      <point x="899" y="308"/>
      <point x="776" y="273"/>
      <point x="698" y="273" type="qcurve" smooth="yes"/>
      <point x="457" y="273" type="line"/>
      <point x="432" y="136" type="line"/>
      <point x="658" y="136" type="line" smooth="yes"/>
      <point x="692" y="136"/>
      <point x="716" y="106"/>
      <point x="709" y="68" type="qcurve" smooth="yes"/>
      <point x="703" y="30"/>
      <point x="669" y="0"/>
      <point x="635" y="0" type="qcurve" smooth="yes"/>
      <point x="113" y="0" type="line" smooth="yes"/>
      <point x="79" y="0"/>
      <point x="55" y="30"/>
      <point x="61" y="68" type="qcurve" smooth="yes"/>
      <point x="68" y="106"/>
      <point x="102" y="136"/>
      <point x="136" y="136" type="qcurve" smooth="yes"/>
      <point x="282" y="136" type="line"/>
    </contour>
    <contour>
      <point x="691" y="409" type="line" smooth="yes"/>
      <point x="766" y="409"/>
      <point x="867" y="453"/>
      <point x="897.5" y="486.5" type="qcurve" smooth="yes" name="inserted"/>
      <point x="928" y="520"/>
      <point x="953" y="602"/>
      <point x="953" y="641" type="qcurve" smooth="yes"/>
      <point x="953" y="707"/>
      <point x="860" y="791"/>
      <point x="758" y="791" type="qcurve" smooth="yes"/>
      <point x="548" y="791" type="line"/>
      <point x="481" y="409" type="line"/>
    </contour>
  </outline>
</glyph>
<glyph name="eth" format="2">
  <advance width="1228"/>
  <unicode hex="00F0"/>
  <outline>
    <contour>
      <point x="636" y="1134" type="line"/>
      <point x="611" y="1150"/>
      <point x="560" y="1181"/>
      <point x="533" y="1195" type="qcurve" smooth="yes"/>
      <point x="505" y="1210"/>
      <point x="493" y="1254"/>
      <point x="513" y="1288" type="qcurve" smooth="yes"/>
      <point x="533" y="1323"/>
      <point x="578" y="1338"/>
      <point x="606" y="1323" type="qcurve" smooth="yes"/>
      <point x="661.0" y="1294.0" name="inserted"/>
      <point x="761.0" y="1229.5"/>
      <point x="806" y="1194" type="qcurve"/>
      <point x="1057" y="1282" type="line" smooth="yes"/>
      <point x="1090" y="1294"/>
      <point x="1131" y="1275"/>
      <point x="1142" y="1240" type="qcurve" smooth="yes"/>
      <point x="1153" y="1208"/>
      <point x="1136" y="1166"/>
      <point x="1102" y="1154" type="qcurve" smooth="yes"/>
      <point x="917" y="1089" type="line"/>
      <point x="1005" y="989"/>
      <point x="1106" y="742"/>
      <point x="1106" y="587" type="qcurve" smooth="yes"/>
      <point x="1106" y="545"/>
      <point x="1098" y="458"/>
      <point x="1090" y="412" type="qcurve" smooth="yes"/>
      <point x="1072" y="310"/>
      <point x="975" y="149"/>
      <point x="904.0" y="93.0" type="qcurve" smooth="yes" name="inserted"/>
      <point x="833" y="37"/>
      <point x="652" y="-22"/>
      <point x="550" y="-22" type="qcurve" smooth="yes"/>
      <point x="459" y="-22"/>
      <point x="309" y="35"/>
      <point x="255.0" y="86.0" type="qcurve" smooth="yes" name="inserted"/>
      <point x="201" y="137"/>
      <point x="142" y="278"/>
      <point x="142" y="363" type="qcurve" smooth="yes"/>
      <point x="142" y="466"/>
      <point x="218" y="656"/>
      <point x="288.5" y="728.0" type="qcurve" smooth="yes" name="inserted"/>
      <point x="359" y="800"/>
      <point x="562" y="886"/>
      <point x="690" y="886" type="qcurve" smooth="yes"/>
      <point x="760" y="886"/>
      <point x="881" y="841"/>
      <point x="929" y="803" type="qcurve"/>
      <point x="902" y="870"/>
      <point x="818" y="984"/>
      <point x="764" y="1035" type="qcurve"/>
      <point x="510" y="946" type="line" smooth="yes"/>
      <point x="476" y="934"/>
      <point x="436" y="956"/>
      <point x="425" y="988" type="qcurve" smooth="yes"/>
      <point x="414" y="1022"/>
      <point x="431" y="1062"/>
      <point x="465" y="1074" type="qcurve" smooth="yes"/>
    </contour>
    <contour>
      <point x="674" y="738" type="qcurve" smooth="yes"/>
      <point x="590" y="738"/>
      <point x="452" y="679"/>
      <point x="402.5" y="628.5" type="qcurve" smooth="yes" name="inserted"/>
      <point x="353" y="578"/>
      <point x="298" y="443"/>
      <point x="298" y="367" type="qcurve" smooth="yes"/>
      <point x="298" y="311"/>
      <point x="335" y="222"/>
      <point x="369.5" y="191.0" type="qcurve" smooth="yes" name="inserted"/>
      <point x="404" y="160"/>
      <point x="503" y="126"/>
      <point x="566" y="126" type="qcurve" smooth="yes"/>
      <point x="653" y="126"/>
      <point x="793" y="188"/>
      <point x="841.5" y="240.0" type="qcurve" smooth="yes" name="inserted"/>
      <point x="890" y="292"/>
      <point x="942" y="425"/>
      <point x="942" y="496" type="qcurve" smooth="yes"/>
      <point x="942" y="552"/>
      <point x="905" y="641"/>
      <point x="870.5" y="672.5" type="qcurve" smooth="yes" name="inserted"/>
      <point x="836" y="704"/>
      <point x="737" y="738"/>
    </contour>
  </outline>
</glyph>
<glyph name="Hbar" format="2">
  <advance width="1228"/>
  <unicode hex="0126"/>
  <outline>
    <contour>
      <point x="283" y="788" type="line"/>
      <point x="161" y="788" type="line" smooth="yes"/>
      <point x="127" y="788"/>
      <point x="104" y="818"/>
      <point x="110" y="856" type="qcurve" smooth="yes"/>
      <point x="117" y="894"/>
      <point x="151" y="924"/>
      <point x="185" y="924" type="qcurve" smooth="yes"/>
      <point x="307" y="924" type="line"/>
      <point x="330" y="1051" type="line"/>
      <point x="258" y="1051" type="line" smooth="yes"/>
      <point x="224" y="1051"/>
      <point x="200" y="1081"/>
      <point x="207" y="1119" type="qcurve" smooth="yes"/>
      <point x="214" y="1157"/>
      <point x="248" y="1187"/>
      <point x="282" y="1187" type="qcurve" smooth="yes"/>
      <point x="596" y="1187" type="line" smooth="yes"/>
      <point x="630" y="1187"/>
      <point x="654" y="1157"/>
      <point x="647" y="1119" type="qcurve" smooth="yes"/>
      <point x="640" y="1081"/>
      <point x="606" y="1051"/>
      <point x="572" y="1051" type="qcurve" smooth="yes"/>
      <point x="480" y="1051" type="line"/>
      <point x="457" y="924" type="line"/>
      <point x="955" y="924" type="line"/>
      <point x="978" y="1051" type="line"/>
      <point x="886" y="1051" type="line" smooth="yes"/>
      <point x="852" y="1051"/>
      <point x="828" y="1081"/>
      <point x="835" y="1119" type="qcurve" smooth="yes"/>
      <point x="842" y="1157"/>
      <point x="876" y="1187"/>
      <point x="910" y="1187" type="qcurve" smooth="yes"/>
      <point x="1224" y="1187" type="line" smooth="yes"/>
      <point x="1258" y="1187"/>
      <point x="1282" y="1157"/>
      <point x="1275" y="1119" type="qcurve" smooth="yes"/>
      <point x="1268" y="1081"/>
      <point x="1234" y="1051"/>
      <point x="1200" y="1051" type="qcurve" smooth="yes"/>
      <point x="1128" y="1051" type="line"/>
      <point x="1105" y="924" type="line"/>
      <point x="1227" y="924" type="line" smooth="yes"/>
      <point x="1261" y="924"/>
      <point x="1285" y="894"/>
      <point x="1278" y="856" type="qcurve" smooth="yes"/>
      <point x="1272" y="818"/>
      <point x="1237" y="788"/>
      <point x="1203" y="788" type="qcurve" smooth="yes"/>
      <point x="1081" y="788" type="line"/>
      <point x="966" y="136" type="line"/>
      <point x="1038" y="136" type="line" smooth="yes"/>
      <point x="1072" y="136"/>
      <point x="1096" y="106"/>
      <point x="1089" y="68" type="qcurve" smooth="yes"/>
      <point x="1083" y="30"/>
      <point x="1049" y="0"/>
      <point x="1015" y="0" type="qcurve" smooth="yes"/>
      <point x="701" y="0" type="line" smooth="yes"/>
      <point x="667" y="0"/>
      <point x="643" y="30"/>
      <point x="649" y="68" type="qcurve" smooth="yes"/>
      <point x="656" y="106"/>
      <point x="690" y="136"/>
      <point x="724" y="136" type="qcurve" smooth="yes"/>
      <point x="816" y="136" type="line"/>
      <point x="888" y="544" type="line"/>
      <point x="390" y="544" type="line"/>
      <point x="318" y="136" type="line"/>
      <point x="410" y="136" type="line" smooth="yes"/>
      <point x="444" y="136"/>
      <point x="468" y="106"/>
      <point x="461" y="68" type="qcurve" smooth="yes"/>
      <point x="455" y="30"/>
      <point x="421" y="0"/>
      <point x="387" y="0" type="qcurve" smooth="yes"/>
      <point x="73" y="0" type="line" smooth="yes"/>
      <point x="39" y="0"/>
      <point x="15" y="30"/>
      <point x="21" y="68" type="qcurve" smooth="yes"/>
      <point x="28" y="106"/>
      <point x="62" y="136"/>
      <point x="96" y="136" type="qcurve" smooth="yes"/>
      <point x="168" y="136" type="line"/>
    </contour>
    <contour>
      <point x="912" y="680" type="line"/>
      <point x="931" y="788" type="line"/>
      <point x="433" y="788" type="line"/>
      <point x="414" y="680" type="line"/>
    </contour>
  </outline>
</glyph>
<glyph name="hbar" format="2">
  <advance width="1228"/>
  <unicode hex="0127"/>
  <outline>
    <contour>
      <point x="510" y="1126" type="line"/>
      <point x="773" y="1126" type="line" smooth="yes"/>
      <point x="807" y="1126"/>
      <point x="831" y="1096"/>
      <point x="824" y="1058" type="qcurve" smooth="yes"/>
      <point x="817" y="1020"/>
      <point x="783" y="990"/>
      <point x="749" y="990" type="qcurve" smooth="yes"/>
      <point x="486" y="990" type="line"/>
      <point x="444" y="750" type="line"/>
      <point x="526" y="846"/>
      <point x="708" y="946"/>
      <point x="803" y="946" type="qcurve" smooth="yes"/>
      <point x="863" y="946"/>
      <point x="957" y="909"/>
      <point x="990.0" y="875.5" type="qcurve" smooth="yes" name="inserted"/>
      <point x="1023" y="842"/>
      <point x="1058" y="746"/>
      <point x="1058" y="687" type="qcurve" smooth="yes"/>
      <point x="1058" y="669"/>
      <point x="1055" y="630"/>
      <point x="1051" y="610" type="qcurve" smooth="yes"/>
      <point x="967" y="136" type="line"/>
      <point x="1049" y="136" type="line" smooth="yes"/>
      <point x="1083" y="136"/>
      <point x="1107" y="106"/>
      <point x="1100" y="68" type="qcurve" smooth="yes"/>
      <point x="1094" y="30"/>
      <point x="1060" y="0"/>
      <point x="1026" y="0" type="qcurve" smooth="yes"/>
      <point x="857" y="0" type="line" smooth="yes"/>
      <point x="823" y="0"/>
      <point x="798" y="30"/>
      <point x="805" y="68" type="qcurve" smooth="yes"/>
      <point x="900" y="605" type="line" smooth="yes"/>
      <point x="902" y="619"/>
      <point x="905" y="645"/>
      <point x="905" y="658" type="qcurve" smooth="yes"/>
      <point x="905" y="722"/>
      <point x="841" y="798"/>
      <point x="772" y="798" type="qcurve" smooth="yes"/>
      <point x="708" y="798"/>
      <point x="581" y="736"/>
      <point x="527.5" y="682.0" type="qcurve" smooth="yes" name="inserted"/>
      <point x="474" y="628"/>
      <point x="396" y="484"/>
      <point x="382" y="402" type="qcurve" smooth="yes"/>
      <point x="321" y="55" type="line" smooth="yes"/>
      <point x="315" y="20"/>
      <point x="277" y="-10"/>
      <point x="235" y="-10" type="qcurve" smooth="yes"/>
      <point x="193" y="-10"/>
      <point x="165" y="20"/>
      <point x="171" y="55" type="qcurve" smooth="yes"/>
      <point x="336" y="990" type="line"/>
      <point x="187" y="990" type="line" smooth="yes"/>
      <point x="153" y="990"/>
      <point x="129" y="1020"/>
      <point x="136" y="1058" type="qcurve" smooth="yes"/>
      <point x="143" y="1096"/>
      <point x="177" y="1126"/>
      <point x="211" y="1126" type="qcurve" smooth="yes"/>
      <point x="360" y="1126" type="line"/>
      <point x="369" y="1176" type="line"/>
      <point x="277" y="1176" type="line" smooth="yes"/>
      <point x="243" y="1176"/>
      <point x="219" y="1206"/>
      <point x="226" y="1244" type="qcurve" smooth="yes"/>
      <point x="233" y="1282"/>
      <point x="267" y="1312"/>
      <point x="301" y="1312" type="qcurve" smooth="yes"/>
      <point x="480" y="1312" type="line" smooth="yes"/>
      <point x="514" y="1312"/>
      <point x="538" y="1282"/>
      <point x="531" y="1244" type="qcurve" smooth="yes"/>
    </contour>
  </outline>
</glyph>
<glyph name="Iogonek" format="2">
  <advance width="1228"/>
  <unicode hex="012E"/>
  <outline>
    <contour>
      <point x="474" y="-336" type="qcurve" smooth="yes"/>
      <point x="503" y="-336"/>
      <point x="558" y="-331"/>
      <point x="585" y="-326" type="qcurve" smooth="yes"/>
      <point x="605.0" y="-323.0" name="inserted"/>
      <point x="628.5" y="-347.0"/>
      <point x="632" y="-374" type="qcurve" smooth="yes"/>
      <point x="636" y="-402"/>
      <point x="619" y="-435"/>
      <point x="596" y="-443" type="qcurve" smooth="yes"/>
      <point x="559" y="-456"/>
      <point x="465" y="-472"/>
      <point x="417" y="-472" type="qcurve" smooth="yes"/>
      <point x="336" y="-472"/>
      <point x="249" y="-382"/>
      <point x="249" y="-310" type="qcurve" smooth="yes"/>
      <point x="249" y="-227"/>
      <point x="355" y="-76"/>
      <point x="453" y="0" type="qcurve"/>
      <point x="203" y="0" type="line" smooth="yes"/>
      <point x="169" y="0"/>
      <point x="145" y="30"/>
      <point x="151" y="68" type="qcurve" smooth="yes"/>
      <point x="158" y="106"/>
      <point x="192" y="136"/>
      <point x="226" y="136" type="qcurve" smooth="yes"/>
      <point x="492" y="136" type="line"/>
      <point x="654" y="1051" type="line"/>
      <point x="388" y="1051" type="line" smooth="yes"/>
      <point x="354" y="1051"/>
      <point x="330" y="1081"/>
      <point x="337" y="1119" type="qcurve" smooth="yes"/>
      <point x="344" y="1157"/>
      <point x="378" y="1187"/>
      <point x="412" y="1187" type="qcurve" smooth="yes"/>
      <point x="1074" y="1187" type="line" smooth="yes"/>
      <point x="1108" y="1187"/>
      <point x="1132" y="1157"/>
      <point x="1125" y="1119" type="qcurve" smooth="yes"/>
      <point x="1118" y="1081"/>
      <point x="1084" y="1051"/>
      <point x="1050" y="1051" type="qcurve" smooth="yes"/>
      <point x="804" y="1051" type="line"/>
      <point x="642" y="136" type="line"/>
      <point x="928" y="136" type="line" smooth="yes"/>
      <point x="962" y="136"/>
      <point x="986" y="106"/>
      <point x="979" y="68" type="qcurve" smooth="yes"/>
      <point x="973" y="30"/>
      <point x="939" y="0"/>
      <point x="905" y="0" type="qcurve" smooth="yes"/>
      <point x="625" y="0" type="line"/>
      <point x="513" y="-88"/>
      <point x="409" y="-223"/>
      <point x="409" y="-277" type="qcurve" smooth="yes"/>
      <point x="409" y="-306"/>
      <point x="444" y="-336"/>
    </contour>
  </outline>
</glyph>
<glyph name="dotlessi" format="2">
  <advance width="1228"/>
  <unicode hex="0131"/>
  <outline>
    <contour>
      <point x="298" y="788" type="line" smooth="yes"/>
      <point x="264" y="788"/>
      <point x="241" y="818"/>
      <point x="247" y="856" type="qcurve" smooth="yes"/>
      <point x="254" y="894"/>
      <point x="288" y="924"/>
      <point x="322" y="924" type="qcurve" smooth="yes"/>
      <point x="662" y="924" type="line" smooth="yes"/>
      <point x="696" y="924"/>
      <point x="720" y="894"/>
      <point x="713" y="856" type="qcurve" smooth="yes"/>
      <point x="617" y="310" type="line" smooth="yes"/>
      <point x="614" y="292"/>
      <point x="610" y="258"/>
      <point x="610" y="244" type="qcurve" smooth="yes"/>
      <point x="610" y="181"/>
      <point x="674" y="124"/>
      <point x="744" y="124" type="qcurve" smooth="yes"/>
      <point x="802" y="124"/>
      <point x="914" y="162"/>
      <point x="976" y="200" type="qcurve" smooth="yes"/>
      <point x="1001" y="215"/>
      <point x="1045" y="196"/>
      <point x="1059" y="161" type="qcurve" smooth="yes"/>
      <point x="1073" y="125"/>
      <point x="1057" y="81"/>
      <point x="1029" y="65" type="qcurve" smooth="yes"/>
      <point x="952.5" y="21.5" name="inserted"/>
      <point x="802.5" y="-22.0"/>
      <point x="729" y="-22" type="qcurve" smooth="yes"/>
      <point x="598" y="-22"/>
      <point x="460" y="111"/>
      <point x="460" y="229" type="qcurve" smooth="yes"/>
      <point x="460.0" y="249.0" name="inserted"/>
      <point x="463.5" y="288.0"/>
      <point x="467" y="307" type="qcurve" smooth="yes"/>
      <point x="551" y="788" type="line"/>
    </contour>
  </outline>
</glyph>
<glyph name="OE" format="2">
  <advance width="1228"/>
  <unicode hex="0152"/>
  <outline>
    <contour>
      <point x="941" y="136" type="line"/>
      <point x="982" y="365" type="line" smooth="yes"/>
      <point x="988" y="400"/>
      <point x="1026" y="430"/>
      <point x="1068" y="430" type="qcurve" smooth="yes"/>
      <point x="1110" y="430"/>
      <point x="1138" y="400"/>
      <point x="1132" y="365" type="qcurve" smooth="yes"/>
      <point x="1079" y="68" type="line" smooth="yes"/>
      <point x="1073" y="30"/>
      <point x="1039" y="0"/>
      <point x="1005" y="0" type="qcurve" smooth="yes"/>
      <point x="514" y="0" type="line" smooth="yes"/>
      <point x="414" y="0"/>
      <point x="255" y="62"/>
      <point x="199.5" y="120.5" type="qcurve" smooth="yes" name="inserted"/>
      <point x="144" y="179"/>
      <point x="84" y="348"/>
      <point x="84" y="454" type="qcurve" smooth="yes"/>
      <point x="84" y="531"/>
      <point x="114" y="700"/>
      <point x="146.0" y="781.5" type="qcurve" smooth="yes" name="inserted"/>
      <point x="178" y="863"/>
      <point x="277" y="1010"/>
      <point x="345.5" y="1065.5" type="qcurve" smooth="yes" name="inserted"/>
      <point x="414" y="1121"/>
      <point x="592" y="1187"/>
      <point x="703" y="1187" type="qcurve" smooth="yes"/>
      <point x="1202" y="1187" type="line" smooth="yes"/>
      <point x="1236" y="1187"/>
      <point x="1260" y="1157"/>
      <point x="1253" y="1119" type="qcurve" smooth="yes"/>
      <point x="1208" y="865" type="line" smooth="yes"/>
      <point x="1202" y="830"/>
      <point x="1164" y="800"/>
      <point x="1122" y="800" type="qcurve" smooth="yes"/>
      <point x="1080" y="800"/>
      <point x="1052" y="830"/>
      <point x="1058" y="865" type="qcurve" smooth="yes"/>
      <point x="1091" y="1051" type="line"/>
      <point x="831" y="1051" type="line"/>
      <point x="766" y="685" type="line"/>
      <point x="958" y="685" type="line" smooth="yes"/>
      <point x="992" y="685"/>
      <point x="1016" y="655"/>
      <point x="1009" y="617" type="qcurve" smooth="yes"/>
      <point x="1002" y="579"/>
      <point x="968" y="549"/>
      <point x="934" y="549" type="qcurve" smooth="yes"/>
      <point x="742" y="549" type="line"/>
      <point x="669" y="136" type="line"/>
    </contour>
    <contour>
      <point x="681" y="1050" type="line"/>
      <point x="604" y="1048"/>
      <point x="479" y="994"/>
      <point x="430.5" y="950.0" type="qcurve" smooth="yes" name="inserted"/>
      <point x="382" y="906"/>
      <point x="310" y="790"/>
      <point x="287.0" y="725.5" type="qcurve" smooth="yes" name="inserted"/>
      <point x="264" y="661"/>
      <point x="242" y="525"/>
      <point x="242" y="461" type="qcurve" smooth="yes"/>
      <point x="242" y="306"/>
      <point x="388" y="141"/>
      <point x="519" y="136" type="qcurve"/>
    </contour>
  </outline>
</glyph>
<glyph name="Scedilla" format="2">
  <advance width="1228"/>
  <unicode hex="015E"/>
  <outline>
    <contour>
      <point x="486" y="-13" type="line"/>
      <point x="414" y="1"/>
      <point x="298" y="71"/>
      <point x="260" y="126" type="qcurve"/>
      <point x="245" y="43" type="line" smooth="yes"/>
      <point x="239" y="8"/>
      <point x="201" y="-22"/>
      <point x="159" y="-22" type="qcurve" smooth="yes"/>
      <point x="117" y="-22"/>
      <point x="89" y="8"/>
      <point x="95" y="43" type="qcurve" smooth="yes"/>
      <point x="148" y="343" type="line" smooth="yes"/>
      <point x="154" y="378"/>
      <point x="192" y="408"/>
      <point x="234" y="408" type="qcurve" smooth="yes"/>
      <point x="255.5" y="408.0" name="inserted"/>
      <point x="281.0" y="387.0"/>
      <point x="285" y="366" type="qcurve" smooth="yes"/>
      <point x="305" y="250"/>
      <point x="462" y="126"/>
      <point x="594" y="126" type="qcurve" smooth="yes"/>
      <point x="670" y="126"/>
      <point x="783" y="165"/>
      <point x="821.0" y="197.5" type="qcurve" smooth="yes" name="inserted"/>
      <point x="859" y="230"/>
      <point x="897" y="315"/>
      <point x="897" y="361" type="qcurve" smooth="yes"/>
      <point x="897" y="409"/>
      <point x="847" y="471"/>
      <point x="805" y="492" type="qcurve" smooth="yes"/>
      <point x="765" y="512"/>
      <point x="663" y="538"/>
      <point x="608.5" y="550.0" type="qcurve" smooth="yes" name="inserted"/>
      <point x="554" y="562"/>
      <point x="444" y="590"/>
      <point x="397" y="611" type="qcurve" smooth="yes"/>
      <point x="365" y="626"/>
      <point x="310" y="664"/>
      <point x="290.0" y="689.0" type="qcurve" smooth="yes" name="inserted"/>
      <point x="270" y="714"/>
      <point x="248" y="779"/>
      <point x="248" y="821" type="qcurve" smooth="yes"/>
      <point x="248" y="885"/>
      <point x="298" y="1022"/>
      <point x="351.5" y="1079.0" type="qcurve" smooth="yes" name="inserted"/>
      <point x="405" y="1136"/>
      <point x="574" y="1209"/>
      <point x="694" y="1209" type="qcurve" smooth="yes"/>
      <point x="740" y="1209"/>
      <point x="826" y="1189"/>
      <point x="863.5" y="1171.5" type="qcurve" smooth="yes" name="inserted"/>
      <point x="901" y="1154"/>
      <point x="964" y="1106"/>
      <point x="987" y="1078" type="qcurve"/>
      <point x="999" y="1144" type="line" smooth="yes"/>
      <point x="1005" y="1179"/>
      <point x="1044" y="1209"/>
      <point x="1086" y="1209" type="qcurve" smooth="yes"/>
      <point x="1128" y="1209"/>
      <point x="1155" y="1179"/>
      <point x="1149" y="1144" type="qcurve" smooth="yes"/>
      <point x="1109" y="914" type="line" smooth="yes"/>
      <point x="1103" y="879"/>
      <point x="1064" y="849"/>
      <point x="1022" y="849" type="qcurve" smooth="yes"/>
      <point x="1003.5" y="849.0" name="inserted"/>
      <point x="980.0" y="862.0"/>
      <point x="975" y="875" type="qcurve" smooth="yes"/>
      <point x="942" y="968"/>
      <point x="785" y="1061"/>
      <point x="675" y="1061" type="qcurve" smooth="yes"/>
      <point x="605" y="1061"/>
      <point x="504" y="1021"/>
      <point x="471.5" y="990.5" type="qcurve" smooth="yes" name="inserted"/>
      <point x="439" y="960"/>
      <point x="408" y="885"/>
      <point x="408" y="849" type="qcurve" smooth="yes"/>
      <point x="408" y="807"/>
      <point x="462" y="757"/>
      <point x="507" y="740" type="qcurve" smooth="yes"/>
      <point x="548" y="724"/>
      <point x="652" y="702"/>
      <point x="707.5" y="689.5" type="qcurve" smooth="yes" name="inserted"/>
      <point x="763" y="677"/>
      <point x="872" y="645"/>
      <point x="919" y="620" type="qcurve" smooth="yes"/>
      <point x="949" y="603"/>
      <point x="1000" y="561"/>
      <point x="1018.5" y="533.5" type="qcurve" smooth="yes" name="inserted"/>
      <point x="1037" y="506"/>
      <point x="1057" y="436"/>
      <point x="1057" y="392" type="qcurve" smooth="yes"/>
      <point x="1057" y="326"/>
      <point x="1012" y="185"/>
      <point x="961.0" y="126.0" type="qcurve" smooth="yes" name="inserted"/>
      <point x="910" y="67"/>
      <point x="742" y="-14"/>
      <point x="619" y="-21" type="qcurve"/>
      <point x="603" y="-113" type="line"/>
      <point x="649" y="-112"/>
      <point x="716" y="-135"/>
      <point x="738.0" y="-154.5" type="qcurve" smooth="yes" name="inserted"/>
      <point x="760" y="-174"/>
      <point x="781" y="-228"/>
      <point x="781" y="-258" type="qcurve" smooth="yes"/>
      <point x="781" y="-273"/>
      <point x="775" y="-310"/>
      <point x="768.0" y="-329.0" type="qcurve" smooth="yes" name="inserted"/>
      <point x="761" y="-348"/>
      <point x="741" y="-383"/>
      <point x="727" y="-398" type="qcurve" smooth="yes"/>
      <point x="694" y="-433"/>
      <point x="585" y="-472"/>
      <point x="507" y="-472" type="qcurve" smooth="yes"/>
      <point x="440" y="-472"/>
      <point x="317" y="-448"/>
      <point x="269" y="-424" type="qcurve" smooth="yes"/>
      <point x="252" y="-415"/>
      <point x="251" y="-374"/>
      <point x="262" y="-354" type="qcurve" smooth="yes"/>
      <point x="272" y="-335"/>
      <point x="304" y="-311"/>
      <point x="321" y="-318" type="qcurve" smooth="yes"/>
      <point x="358" y="-333"/>
      <point x="457" y="-352"/>
      <point x="508" y="-352" type="qcurve" smooth="yes"/>
      <point x="568" y="-352"/>
      <point x="624" y="-306"/>
      <point x="624" y="-271" type="qcurve" smooth="yes"/>
      <point x="624" y="-237"/>
      <point x="554" y="-213"/>
      <point x="490" y="-217" type="qcurve"/>
      <point x="483" y="-217"/>
      <point x="469" y="-215"/>
      <point x="464.0" y="-210.5" type="qcurve" smooth="yes" name="inserted"/>
      <point x="459" y="-206"/>
      <point x="455" y="-189"/>
      <point x="458" y="-175" type="qcurve" smooth="yes"/>
    </contour>
  </outline>
</glyph>
<glyph name="Tbar" format="2">
  <advance width="1228"/>
  <unicode hex="0166"/>
  <outline>
    <contour>
      <point x="547" y="450" type="line"/>
      <point x="342" y="450" type="line" smooth="yes"/>
      <point x="308" y="450"/>
      <point x="284" y="480"/>
      <point x="291" y="518" type="qcurve" smooth="yes"/>
      <point x="298" y="556"/>
      <point x="332" y="586"/>
      <point x="366" y="586" type="qcurve" smooth="yes"/>
      <point x="571" y="586" type="line"/>
      <point x="654" y="1051" type="line"/>
      <point x="387" y="1051" type="line"/>
      <point x="332" y="742" type="line" smooth="yes"/>
      <point x="326" y="707"/>
      <point x="288" y="677"/>
      <point x="246" y="677" type="qcurve" smooth="yes"/>
      <point x="204" y="677"/>
      <point x="176" y="707"/>
      <point x="182" y="742" type="qcurve" smooth="yes"/>
      <point x="249" y="1119" type="line" smooth="yes"/>
      <point x="256" y="1157"/>
      <point x="290" y="1187"/>
      <point x="324" y="1187" type="qcurve" smooth="yes"/>
      <point x="1182" y="1187" type="line" smooth="yes"/>
      <point x="1216" y="1187"/>
      <point x="1240" y="1157"/>
      <point x="1233" y="1119" type="qcurve" smooth="yes"/>
      <point x="1166" y="742" type="line" smooth="yes"/>
      <point x="1160" y="707"/>
      <point x="1122" y="677"/>
      <point x="1080" y="677" type="qcurve" smooth="yes"/>
      <point x="1038" y="677"/>
      <point x="1010" y="707"/>
      <point x="1016" y="742" type="qcurve" smooth="yes"/>
      <point x="1071" y="1051" type="line"/>
      <point x="804" y="1051" type="line"/>
      <point x="721" y="586" type="line"/>
      <point x="928" y="586" type="line" smooth="yes"/>
      <point x="962" y="586"/>
      <point x="986" y="556"/>
      <point x="979" y="518" type="qcurve" smooth="yes"/>
      <point x="972" y="480"/>
      <point x="938" y="450"/>
      <point x="904" y="450" type="qcurve" smooth="yes"/>
      <point x="697" y="450" type="line"/>
      <point x="642" y="136" type="line"/>
      <point x="888" y="136" type="line" smooth="yes"/>
      <point x="922" y="136"/>
      <point x="946" y="106"/>
      <point x="939" y="68" type="qcurve" smooth="yes"/>
      <point x="933" y="30"/>
      <point x="899" y="0"/>
      <point x="865" y="0" type="qcurve" smooth="yes"/>
      <point x="243" y="0" type="line" smooth="yes"/>
      <point x="209" y="0"/>
      <point x="185" y="30"/>
      <point x="191" y="68" type="qcurve" smooth="yes"/>
      <point x="198" y="106"/>
      <point x="232" y="136"/>
      <point x="266" y="136" type="qcurve" smooth="yes"/>
      <point x="492" y="136" type="line"/>
    </contour>
  </outline>
</glyph>
<glyph name="florin" format="2">
  <advance width="1228"/>
  <unicode hex="0192"/>
  <outline>
    <contour>
      <point x="629" y="844" type="line"/>
      <point x="674" y="1007" type="line" smooth="yes"/>
      <point x="717.0" y="1162.0" name="inserted"/>
      <point x="901.0" y="1317.0"/>
      <point x="1042" y="1317" type="qcurve" smooth="yes"/>
      <point x="1095" y="1317"/>
      <point x="1200" y="1302"/>
      <point x="1247" y="1286" type="qcurve" smooth="yes"/>
      <point x="1272" y="1278"/>
      <point x="1291" y="1240"/>
      <point x="1277" y="1198" type="qcurve" smooth="yes"/>
      <point x="1263" y="1156"/>
      <point x="1223" y="1134"/>
      <point x="1198" y="1142" type="qcurve" smooth="yes"/>
      <point x="1153" y="1157"/>
      <point x="1069" y="1171"/>
      <point x="1021" y="1171" type="qcurve" smooth="yes"/>
      <point x="946" y="1171"/>
      <point x="843" y="1081"/>
      <point x="817" y="984" type="qcurve" smooth="yes"/>
      <point x="778" y="844" type="line"/>
      <point x="1012" y="844" type="line" smooth="yes"/>
      <point x="1046" y="844"/>
      <point x="1070" y="814"/>
      <point x="1063" y="776" type="qcurve" smooth="yes"/>
      <point x="1057" y="738"/>
      <point x="1022" y="708"/>
      <point x="988" y="708" type="qcurve" smooth="yes"/>
      <point x="740" y="708" type="line"/>
      <point x="553" y="31" type="line" smooth="yes"/>
      <point x="510.0" y="-124.0" name="inserted"/>
      <point x="326.0" y="-279.0"/>
      <point x="185" y="-279" type="qcurve" smooth="yes"/>
      <point x="132" y="-279"/>
      <point x="27" y="-264"/>
      <point x="-20" y="-248" type="qcurve" smooth="yes"/>
      <point x="-44" y="-240"/>
      <point x="-63" y="-201"/>
      <point x="-50" y="-160" type="qcurve" smooth="yes"/>
      <point x="-36" y="-118"/>
      <point x="4" y="-96"/>
      <point x="29" y="-104" type="qcurve" smooth="yes"/>
      <point x="74" y="-119"/>
      <point x="158" y="-133"/>
      <point x="206" y="-133" type="qcurve" smooth="yes"/>
      <point x="281" y="-133"/>
      <point x="384" y="-43"/>
      <point x="410" y="54" type="qcurve" smooth="yes"/>
      <point x="591" y="708" type="line"/>
      <point x="394" y="708" type="line" smooth="yes"/>
      <point x="360" y="708"/>
      <point x="337" y="738"/>
      <point x="343" y="776" type="qcurve" smooth="yes"/>
      <point x="350" y="814"/>
      <point x="384" y="844"/>
      <point x="418" y="844" type="qcurve" smooth="yes"/>
    </contour>
  </outline>
</glyph>
<glyph name="circumflex" format="2">
  <advance width="1228"/>
  <unicode hex="02C6"/>
  <outline>
    <contour>
      <point x="457" y="1039" type="line" smooth="yes"/>
      <point x="437" y="1029"/>
      <point x="404" y="1045"/>
      <point x="396" y="1061" type="qcurve" smooth="yes"/>
      <point x="388" y="1077"/>
      <point x="393" y="1113"/>
      <point x="410" y="1126" type="qcurve" smooth="yes"/>
      <point x="718" y="1358" type="line" smooth="yes"/>
      <point x="730.5" y="1367.0" name="inserted"/>
      <point x="759.5" y="1376.0"/>
      <point x="776" y="1376" type="qcurve" smooth="yes"/>
      <point x="792.0" y="1376.0" name="inserted"/>
      <point x="818.0" y="1367.0"/>
      <point x="828" y="1358" type="qcurve" smooth="yes"/>
      <point x="1074" y="1126" type="line" smooth="yes"/>
      <point x="1087" y="1113"/>
      <point x="1084" y="1076"/>
      <point x="1074" y="1060" type="qcurve" smooth="yes"/>
      <point x="1063" y="1044"/>
      <point x="1031" y="1028"/>
      <point x="1015" y="1039" type="qcurve" smooth="yes"/>
      <point x="763" y="1198" type="line"/>
    </contour>
  </outline>
</glyph>
<glyph name="caron" format="2">
  <advance width="1228"/>
  <unicode hex="02C7"/>
  <outline>
    <contour>
      <point x="1055" y="1374" type="line" smooth="yes"/>
      <point x="1075" y="1384"/>
      <point x="1108" y="1368"/>
      <point x="1116" y="1352" type="qcurve" smooth="yes"/>
      <point x="1124" y="1336"/>
      <point x="1119" y="1300"/>
      <point x="1102" y="1287" type="qcurve" smooth="yes"/>
      <point x="794" y="1055" type="line" smooth="yes"/>
      <point x="781.0" y="1046.0" name="inserted"/>
      <point x="752.0" y="1037.0"/>
      <point x="736" y="1037" type="qcurve" smooth="yes"/>
      <point x="719.5" y="1037.0" name="inserted"/>
      <point x="693.5" y="1046.0"/>
      <point x="684" y="1055" type="qcurve" smooth="yes"/>
      <point x="438" y="1287" type="line" smooth="yes"/>
      <point x="425" y="1300"/>
      <point x="428" y="1337"/>
      <point x="438" y="1353" type="qcurve" smooth="yes"/>
      <point x="449" y="1369"/>
      <point x="481" y="1385"/>
      <point x="497" y="1374" type="qcurve" smooth="yes"/>
      <point x="749" y="1215" type="line"/>
    </contour>
  </outline>
</glyph>
<glyph name="dotaccent" format="2">
  <advance width="1228"/>
  <unicode hex="02D9"/>
  <outline>
    <contour>
      <point x="737" y="1079" type="qcurve" smooth="yes"/>
      <point x="710" y="1079"/>
      <point x="666" y="1098"/>
      <point x="649.5" y="1114.5" type="qcurve" smooth="yes" name="inserted"/>
      <point x="633" y="1131"/>
      <point x="615" y="1175"/>
      <point x="615" y="1200" type="qcurve" smooth="yes"/>
      <point x="615" y="1233"/>
      <point x="643" y="1292"/>
      <point x="666.0" y="1314.0" type="qcurve" smooth="yes" name="inserted"/>
      <point x="689" y="1336"/>
      <point x="748" y="1361"/>
      <point x="780" y="1361" type="qcurve" smooth="yes"/>
      <point x="807" y="1361"/>
      <point x="851" y="1342"/>
      <point x="867.0" y="1325.5" type="qcurve" smooth="yes" name="inserted"/>
      <point x="883" y="1309"/>
      <point x="901" y="1265"/>
      <point x="901" y="1241" type="qcurve" smooth="yes"/>
      <point x="901" y="1207"/>
      <point x="874" y="1148"/>
      <point x="851.0" y="1126.0" type="qcurve" smooth="yes" name="inserted"/>
      <point x="828" y="1104"/>
      <point x="769" y="1079"/>
    </contour>
  </outline>
</glyph>
<glyph name="hungarumlaut" format="2">
  <advance width="1228"/>
  <unicode hex="02DD"/>
  <outline>
    <contour>
      <point x="925" y="1066" type="line" smooth="yes"/>
      <point x="916.0" y="1059.5" name="inserted"/>
      <point x="895.0" y="1053.0"/>
      <point x="883" y="1053" type="qcurve" smooth="yes"/>
      <point x="873" y="1053"/>
      <point x="852" y="1060"/>
      <point x="843.0" y="1066.0" type="qcurve" smooth="yes" name="inserted"/>
      <point x="834" y="1072"/>
      <point x="822" y="1090"/>
      <point x="822" y="1101" type="qcurve" smooth="yes"/>
      <point x="822.0" y="1109.0" name="inserted"/>
      <point x="828.5" y="1123.5"/>
      <point x="835" y="1130" type="qcurve" smooth="yes"/>
      <point x="1068" y="1355" type="line" smooth="yes"/>
      <point x="1081" y="1368"/>
      <point x="1113" y="1383"/>
      <point x="1133" y="1383" type="qcurve" smooth="yes"/>
      <point x="1147" y="1383"/>
      <point x="1183" y="1371"/>
      <point x="1198.5" y="1360.5" type="qcurve" smooth="yes" name="inserted"/>
      <point x="1214" y="1350"/>
      <point x="1235" y="1322"/>
      <point x="1235" y="1307" type="qcurve" smooth="yes"/>
      <point x="1235" y="1295"/>
      <point x="1223" y="1274"/>
      <point x="1213" y="1267" type="qcurve" smooth="yes"/>
    </contour>
    <contour>
      <point x="575" y="1066" type="line" smooth="yes"/>
      <point x="566.0" y="1059.5" name="inserted"/>
      <point x="545.0" y="1053.0"/>
      <point x="533" y="1053" type="qcurve" smooth="yes"/>
      <point x="523" y="1053"/>
      <point x="502" y="1060"/>
      <point x="493.0" y="1066.0" type="qcurve" smooth="yes" name="inserted"/>
      <point x="484" y="1072"/>
      <point x="472" y="1090"/>
      <point x="472" y="1101" type="qcurve" smooth="yes"/>
      <point x="472.0" y="1109.0" name="inserted"/>
      <point x="478.5" y="1123.5"/>
      <point x="485" y="1130" type="qcurve" smooth="yes"/>
      <point x="718" y="1355" type="line" smooth="yes"/>
      <point x="731" y="1368"/>
      <point x="763" y="1383"/>
      <point x="783" y="1383" type="qcurve" smooth="yes"/>
      <point x="797" y="1383"/>
      <point x="833" y="1371"/>
      <point x="848.5" y="1360.5" type="qcurve" smooth="yes" name="inserted"/>
      <point x="864" y="1350"/>
      <point x="885" y="1322"/>
      <point x="885" y="1307" type="qcurve" smooth="yes"/>
      <point x="885" y="1295"/>
      <point x="873" y="1274"/>
      <point x="863" y="1267" type="qcurve" smooth="yes"/>
    </contour>
  </outline>
</glyph>
<glyph name="emdash" format="2">
  <advance width="1228"/>
  <unicode hex="2014"/>
  <outline>
    <contour>
      <point x="1239" y="650" type="line" smooth="yes"/>
      <point x="1273" y="650"/>
      <point x="1297" y="620"/>
      <point x="1290" y="582" type="qcurve" smooth="yes"/>
      <point x="1283" y="544"/>
      <point x="1249" y="514"/>
      <point x="1215" y="514" type="qcurve" smooth="yes"/>
      <point x="53" y="514" type="line" smooth="yes"/>
      <point x="19" y="514"/>
      <point x="-5" y="544"/>
      <point x="2" y="582" type="qcurve" smooth="yes"/>
      <point x="9" y="620"/>
      <point x="43" y="650"/>
      <point x="77" y="650" type="qcurve" smooth="yes"/>
    </contour>
  </outline>
</glyph>
<glyph name="quoteright" format="2">
  <advance width="1228"/>
  <unicode hex="2019"/>
  <outline>
    <contour>
      <point x="629" y="697" type="line" smooth="yes"/>
      <point x="614.5" y="675.5" name="inserted"/>
      <point x="572.5" y="654.0"/>
      <point x="545" y="654" type="qcurve" smooth="yes"/>
      <point x="510" y="654"/>
      <point x="481" y="691"/>
      <point x="494" y="723" type="qcurve" smooth="yes"/>
      <point x="668" y="1169" type="line" smooth="yes"/>
      <point x="675.5" y="1189.0" name="inserted"/>
      <point x="705.0" y="1209.0"/>
      <point x="727" y="1209" type="qcurve" smooth="yes"/>
      <point x="916" y="1209" type="line" smooth="yes"/>
      <point x="941" y="1209"/>
      <point x="951" y="1172"/>
      <point x="933" y="1146" type="qcurve" smooth="yes"/>
    </contour>
  </outline>
</glyph>
<glyph name="quotedblbase" format="2">
  <advance width="1228"/>
  <unicode hex="201E"/>
  <outline>
    <contour>
      <point x="263" y="-218" type="line" smooth="yes"/>
      <point x="248.5" y="-239.5" name="inserted"/>
      <point x="206.5" y="-261.0"/>
      <point x="179" y="-261" type="qcurve" smooth="yes"/>
      <point x="144" y="-261"/>
      <point x="115" y="-224"/>
      <point x="128" y="-192" type="qcurve" smooth="yes"/>
      <point x="302" y="254" type="line" smooth="yes"/>
      <point x="309.5" y="274.0" name="inserted"/>
      <point x="339.0" y="294.0"/>
      <point x="361" y="294" type="qcurve" smooth="yes"/>
      <point x="550" y="294" type="line" smooth="yes"/>
      <point x="575" y="294"/>
      <point x="585" y="257"/>
      <point x="567" y="231" type="qcurve" smooth="yes"/>
    </contour>
    <contour>
      <point x="673" y="-218" type="line" smooth="yes"/>
      <point x="658.5" y="-239.5" name="inserted"/>
      <point x="616.5" y="-261.0"/>
      <point x="589" y="-261" type="qcurve" smooth="yes"/>
      <point x="554" y="-261"/>
      <point x="525" y="-224"/>
      <point x="538" y="-192" type="qcurve" smooth="yes"/>
      <point x="712" y="254" type="line" smooth="yes"/>
      <point x="719.5" y="274.0" name="inserted"/>
      <point x="749.0" y="294.0"/>
      <point x="771" y="294" type="qcurve" smooth="yes"/>
      <point x="960" y="294" type="line" smooth="yes"/>
      <point x="985" y="294"/>
      <point x="995" y="257"/>
      <point x="977" y="231" type="qcurve" smooth="yes"/>
    </contour>
  </outline>
</glyph>
<glyph name="daggerdbl" format="2">
  <advance width="1228"/>
  <unicode hex="2021"/>
  <outline>
    <contour>
      <point x="363" y="456" type="line" smooth="yes"/>
      <point x="329" y="456"/>
      <point x="305" y="486"/>
      <point x="312" y="524" type="qcurve" smooth="yes"/>
      <point x="319" y="562"/>
      <point x="353" y="592"/>
      <point x="387" y="592" type="qcurve" smooth="yes"/>
      <point x="580" y="592" type="line"/>
      <point x="623" y="838" type="line"/>
      <point x="430" y="838" type="line" smooth="yes"/>
      <point x="396" y="838"/>
      <point x="372" y="868"/>
      <point x="379" y="906" type="qcurve" smooth="yes"/>
      <point x="386" y="944"/>
      <point x="420" y="974"/>
      <point x="454" y="974" type="qcurve" smooth="yes"/>
      <point x="647" y="974" type="line"/>
      <point x="678" y="1146" type="line" smooth="yes"/>
      <point x="684" y="1180"/>
      <point x="719" y="1209"/>
      <point x="757" y="1209" type="qcurve" smooth="yes"/>
      <point x="795" y="1209"/>
      <point x="820" y="1180"/>
      <point x="814" y="1146" type="qcurve" smooth="yes"/>
      <point x="783" y="974" type="line"/>
      <point x="976" y="974" type="line" smooth="yes"/>
      <point x="1010" y="974"/>
      <point x="1034" y="944"/>
      <point x="1027" y="906" type="qcurve" smooth="yes"/>
      <point x="1020" y="868"/>
      <point x="986" y="838"/>
      <point x="952" y="838" type="qcurve" smooth="yes"/>
      <point x="759" y="838" type="line"/>
      <point x="716" y="592" type="line"/>
      <point x="909" y="592" type="line" smooth="yes"/>
      <point x="943" y="592"/>
      <point x="967" y="562"/>
      <point x="960" y="524" type="qcurve" smooth="yes"/>
      <point x="953" y="486"/>
      <point x="919" y="456"/>
      <point x="885" y="456" type="qcurve" smooth="yes"/>
      <point x="692" y="456" type="line"/>
      <point x="662" y="284" type="line" smooth="yes"/>
      <point x="656" y="250"/>
      <point x="620" y="221"/>
      <point x="582" y="221" type="qcurve" smooth="yes"/>
      <point x="544" y="221"/>
      <point x="520" y="250"/>
      <point x="526" y="284" type="qcurve" smooth="yes"/>
      <point x="556" y="456" type="line"/>
    </contour>
  </outline>
</glyph>
<glyph name="guilsinglright" format="2">
  <advance width="1228"/>
  <unicode hex="203A"/>
  <outline>
    <contour>
      <point x="656" y="590" type="line"/>
      <point x="532" y="875" type="line" smooth="yes"/>
      <point x="521" y="900"/>
      <point x="554" y="937"/>
      <point x="580" y="946" type="qcurve" smooth="yes"/>
      <point x="606" y="955"/>
      <point x="660" y="947"/>
      <point x="670" y="925" type="qcurve" smooth="yes"/>
      <point x="811" y="599" type="line" smooth="yes"/>
      <point x="816.0" y="586.5" name="inserted"/>
      <point x="811.5" y="562.5"/>
      <point x="802" y="551" type="qcurve" smooth="yes"/>
      <point x="547" y="225" type="line" smooth="yes"/>
      <point x="538" y="214"/>
      <point x="515" y="204"/>
      <point x="502.0" y="204.0" type="qcurve" smooth="yes" name="inserted"/>
      <point x="489" y="204"/>
      <point x="463" y="213"/>
      <point x="452" y="220" type="qcurve" smooth="yes"/>
      <point x="430" y="234"/>
      <point x="412" y="280"/>
      <point x="431" y="305" type="qcurve" smooth="yes"/>
    </contour>
  </outline>
</glyph>
<glyph name="fraction" format="2">
  <advance width="1228"/>
  <unicode hex="2044"/>
  <outline>
    <contour>
      <point x="1120" y="840" type="line" smooth="yes"/>
      <point x="1137" y="849"/>
      <point x="1167" y="833"/>
      <point x="1178" y="812" type="qcurve" smooth="yes"/>
      <point x="1188" y="792"/>
      <point x="1183" y="762"/>
      <point x="1164" y="751" type="qcurve" smooth="yes"/>
      <point x="149" y="190" type="line" smooth="yes"/>
      <point x="132" y="181"/>
      <point x="102" y="197"/>
      <point x="91" y="218" type="qcurve" smooth="yes"/>
      <point x="81" y="238"/>
      <point x="86" y="268"/>
      <point x="105" y="279" type="qcurve" smooth="yes"/>
    </contour>
  </outline>
</glyph>
<glyph name="franc" format="2">
  <advance width="1228"/>
  <unicode hex="20A3"/>
  <outline>
    <contour>
      <point x="454" y="564" type="line"/>
      <point x="428" y="420" type="line"/>
      <point x="869" y="420" type="line" smooth="yes"/>
      <point x="903" y="420"/>
      <point x="926" y="390"/>
      <point x="920" y="352" type="qcurve" smooth="yes"/>
      <point x="913" y="314"/>
      <point x="879" y="284"/>
      <point x="845" y="284" type="qcurve" smooth="yes"/>
      <point x="404" y="284" type="line"/>
      <point x="378" y="136" type="line"/>
      <point x="610" y="136" type="line" smooth="yes"/>
      <point x="644" y="136"/>
      <point x="668" y="106"/>
      <point x="661" y="68" type="qcurve" smooth="yes"/>
      <point x="655" y="30"/>
      <point x="621" y="0"/>
      <point x="587" y="0" type="qcurve" smooth="yes"/>
      <point x="73" y="0" type="line" smooth="yes"/>
      <point x="39" y="0"/>
      <point x="15" y="30"/>
      <point x="21" y="68" type="qcurve" smooth="yes"/>
      <point x="28" y="106"/>
      <point x="62" y="136"/>
      <point x="96" y="136" type="qcurve" smooth="yes"/>
      <point x="228" y="136" type="line"/>
      <point x="254" y="284" type="line"/>
      <point x="83" y="284" type="line" smooth="yes"/>
      <point x="49" y="284"/>
      <point x="25" y="314"/>
      <point x="32" y="352" type="qcurve" smooth="yes"/>
      <point x="38" y="390"/>
      <point x="73" y="420"/>
      <point x="107" y="420" type="qcurve" smooth="yes"/>
      <point x="278" y="420" type="line"/>
      <point x="390" y="1051" type="line"/>
      <point x="258" y="1051" type="line" smooth="yes"/>
      <point x="224" y="1051"/>
      <point x="200" y="1081"/>
      <point x="207" y="1119" type="qcurve" smooth="yes"/>
      <point x="214" y="1157"/>
      <point x="248" y="1187"/>
      <point x="282" y="1187" type="qcurve" smooth="yes"/>
      <point x="1186" y="1187" type="line" smooth="yes"/>
      <point x="1220" y="1187"/>
      <point x="1244" y="1157"/>
      <point x="1237" y="1119" type="qcurve" smooth="yes"/>
      <point x="1190" y="855" type="line" smooth="yes"/>
      <point x="1184" y="820"/>
      <point x="1146" y="790"/>
      <point x="1104" y="790" type="qcurve" smooth="yes"/>
      <point x="1062" y="790"/>
      <point x="1034" y="820"/>
      <point x="1040" y="855" type="qcurve" smooth="yes"/>
      <point x="1075" y="1051" type="line"/>
      <point x="540" y="1051" type="line"/>
      <point x="478" y="700" type="line"/>
      <point x="823" y="700" type="line" smooth="yes"/>
      <point x="857" y="700"/>
      <point x="881" y="670"/>
      <point x="874" y="632" type="qcurve" smooth="yes"/>
      <point x="867" y="594"/>
      <point x="833" y="564"/>
      <point x="799" y="564" type="qcurve" smooth="yes"/>
    </contour>
  </outline>
</glyph>
<glyph name="Euro" format="2">
  <advance width="1228"/>
  <unicode hex="20AC"/>
  <outline>
    <contour>
      <point x="294" y="820" type="line"/>
      <point x="330" y="911"/>
      <point x="432" y="1055"/>
      <point x="495.5" y="1105.0" type="qcurve" smooth="yes" name="inserted"/>
      <point x="559" y="1155"/>
      <point x="709" y="1209"/>
      <point x="793" y="1209" type="qcurve" smooth="yes"/>
      <point x="880" y="1209"/>
      <point x="1007" y="1139"/>
      <point x="1044" y="1082" type="qcurve"/>
      <point x="1055" y="1144" type="line" smooth="yes"/>
      <point x="1061" y="1179"/>
      <point x="1100" y="1209"/>
      <point x="1142" y="1209" type="qcurve" smooth="yes"/>
      <point x="1184" y="1209"/>
      <point x="1211" y="1179"/>
      <point x="1205" y="1144" type="qcurve" smooth="yes"/>
      <point x="1147" y="814" type="line" smooth="yes"/>
      <point x="1141" y="779"/>
      <point x="1103" y="749"/>
      <point x="1061" y="749" type="qcurve" smooth="yes"/>
      <point x="1019" y="749"/>
      <point x="991" y="779"/>
      <point x="997" y="814" type="qcurve" smooth="yes"/>
      <point x="1006" y="863"/>
      <point x="989" y="953"/>
      <point x="962.5" y="987.0" type="qcurve" smooth="yes" name="inserted"/>
      <point x="936" y="1021"/>
      <point x="846" y="1061"/>
      <point x="781" y="1061" type="qcurve" smooth="yes"/>
      <point x="677" y="1061"/>
      <point x="513" y="935"/>
      <point x="459" y="820" type="qcurve"/>
      <point x="749" y="820" type="line" smooth="yes"/>
      <point x="783" y="820"/>
      <point x="807" y="790"/>
      <point x="800" y="752" type="qcurve" smooth="yes"/>
      <point x="793" y="714"/>
      <point x="759" y="684"/>
      <point x="725" y="684" type="qcurve" smooth="yes"/>
      <point x="410" y="684" type="line"/>
      <point x="399" y="642"/>
      <point x="383" y="555"/>
      <point x="378" y="510" type="qcurve"/>
      <point x="694" y="510" type="line" smooth="yes"/>
      <point x="728" y="510"/>
      <point x="752" y="480"/>
      <point x="745" y="442" type="qcurve" smooth="yes"/>
      <point x="739" y="404"/>
      <point x="704" y="374"/>
      <point x="670" y="374" type="qcurve" smooth="yes"/>
      <point x="376" y="374" type="line"/>
      <point x="386" y="256"/>
      <point x="500" y="126"/>
      <point x="606" y="126" type="qcurve" smooth="yes"/>
      <point x="698" y="126"/>
      <point x="874" y="187"/>
      <point x="956" y="242" type="qcurve" smooth="yes"/>
      <point x="979" y="257"/>
      <point x="1027" y="242"/>
      <point x="1045" y="207" type="qcurve" smooth="yes"/>
      <point x="1062" y="172"/>
      <point x="1053" y="124"/>
      <point x="1023" y="106" type="qcurve" smooth="yes"/>
      <point x="916" y="40"/>
      <point x="698" y="-22"/>
      <point x="590" y="-22" type="qcurve" smooth="yes"/>
      <point x="504" y="-22"/>
      <point x="371" y="34"/>
      <point x="324.5" y="85.5" type="qcurve" smooth="yes" name="inserted"/>
      <point x="278" y="137"/>
      <point x="225" y="283"/>
      <point x="219" y="374" type="qcurve"/>
      <point x="118" y="374" type="line" smooth="yes"/>
      <point x="84" y="374"/>
      <point x="61" y="404"/>
      <point x="67" y="442" type="qcurve" smooth="yes"/>
      <point x="74" y="480"/>
      <point x="108" y="510"/>
      <point x="142" y="510" type="qcurve" smooth="yes"/>
      <point x="221" y="510" type="line"/>
      <point x="224.5" y="552.5" name="inserted"/>
      <point x="239.5" y="639.5"/>
      <point x="251" y="684" type="qcurve"/>
      <point x="173" y="684" type="line" smooth="yes"/>
      <point x="139" y="684"/>
      <point x="115" y="714"/>
      <point x="122" y="752" type="qcurve" smooth="yes"/>
      <point x="129" y="790"/>
      <point x="163" y="820"/>
      <point x="197" y="820" type="qcurve" smooth="yes"/>
    </contour>
  </outline>
</glyph>
<glyph name="trademark" format="2">
  <advance width="1228"/>
  <unicode hex="2122"/>
  <outline>
    <contour>
      <point x="1252" y="1072" type="line"/>
      <point x="1125" y="880" type="line" smooth="yes"/>
      <point x="1108.5" y="856.0" name="inserted"/>
      <point x="1069.0" y="832.0"/>
      <point x="1046" y="832" type="qcurve" smooth="yes"/>
      <point x="1023" y="832"/>
      <point x="988" y="856"/>
      <point x="981" y="880" type="qcurve" smooth="yes"/>
      <point x="921" y="1072" type="line"/>
      <point x="858" y="813" type="line" smooth="yes"/>
      <point x="850" y="778"/>
      <point x="818" y="748"/>
      <point x="783" y="748" type="qcurve" smooth="yes"/>
      <point x="748" y="748"/>
      <point x="730" y="778"/>
      <point x="738" y="813" type="qcurve" smooth="yes"/>
      <point x="846" y="1257" type="line" smooth="yes"/>
      <point x="854" y="1292"/>
      <point x="888" y="1322"/>
      <point x="923" y="1322" type="qcurve" smooth="yes"/>
      <point x="947.0" y="1322.0" name="inserted"/>
      <point x="975.0" y="1309.0"/>
      <point x="979" y="1296" type="qcurve" smooth="yes"/>
      <point x="1068" y="997" type="line"/>
      <point x="1263" y="1296" type="line" smooth="yes"/>
      <point x="1272" y="1310"/>
      <point x="1307" y="1322"/>
      <point x="1331" y="1322" type="qcurve" smooth="yes"/>
      <point x="1366" y="1322"/>
      <point x="1396" y="1292"/>
      <point x="1392" y="1257" type="qcurve" smooth="yes"/>
      <point x="1344" y="813" type="line" smooth="yes"/>
      <point x="1340" y="778"/>
      <point x="1310" y="748"/>
      <point x="1275" y="748" type="qcurve" smooth="yes"/>
      <point x="1240" y="748"/>
      <point x="1220" y="778"/>
      <point x="1224" y="813" type="qcurve" smooth="yes"/>
    </contour>
    <contour>
      <point x="263" y="1193" type="line" smooth="yes"/>
      <point x="229" y="1193"/>
      <point x="204" y="1218"/>
      <point x="210" y="1252" type="qcurve" smooth="yes"/>
      <point x="216" y="1286"/>
      <point x="250" y="1312"/>
      <point x="284" y="1312" type="qcurve" smooth="yes"/>
      <point x="666" y="1312" type="line" smooth="yes"/>
      <point x="700" y="1312"/>
      <point x="724" y="1286"/>
      <point x="718" y="1252" type="qcurve" smooth="yes"/>
      <point x="712" y="1218"/>
      <point x="679" y="1193"/>
      <point x="645" y="1193" type="qcurve" smooth="yes"/>
      <point x="516" y="1193" type="line"/>
      <point x="449" y="813" type="line" smooth="yes"/>
      <point x="443" y="778"/>
      <point x="410" y="748"/>
      <point x="375" y="748" type="qcurve" smooth="yes"/>
      <point x="340" y="748"/>
      <point x="319" y="778"/>
      <point x="325" y="813" type="qcurve" smooth="yes"/>
      <point x="392" y="1193" type="line"/>
    </contour>
  </outline>
</glyph>
<glyph name="integral" format="2">
  <advance width="1228"/>
  <unicode hex="222B"/>
  <outline>
    <contour>
      <point x="616" y="-13" type="line" smooth="yes"/>
      <point x="599" y="-106"/>
      <point x="526" y="-254"/>
      <point x="471.5" y="-305.5" type="qcurve" smooth="yes" name="inserted"/>
      <point x="417" y="-357"/>
      <point x="274" y="-411"/>
      <point x="189" y="-411" type="qcurve" smooth="yes"/>
      <point x="114" y="-411"/>
      <point x="-23" y="-379"/>
      <point x="-80" y="-353" type="qcurve" smooth="yes"/>
      <point x="-105" y="-342"/>
      <point x="-120" y="-299"/>
      <point x="-105" y="-264" type="qcurve" smooth="yes"/>
      <point x="-90" y="-229"/>
      <point x="-53" y="-207"/>
      <point x="-29" y="-217" type="qcurve" smooth="yes"/>
      <point x="28" y="-240"/>
      <point x="143" y="-265"/>
      <point x="203" y="-265" type="qcurve" smooth="yes"/>
      <point x="309" y="-265"/>
      <point x="447" y="-123"/>
      <point x="470" y="9" type="qcurve" smooth="yes"/>
      <point x="666" y="1119" type="line" smooth="yes"/>
      <point x="682" y="1212"/>
      <point x="756" y="1360"/>
      <point x="810.5" y="1411.5" type="qcurve" smooth="yes" name="inserted"/>
      <point x="865" y="1463"/>
      <point x="1007" y="1517"/>
      <point x="1093" y="1517" type="qcurve" smooth="yes"/>
      <point x="1168" y="1517"/>
      <point x="1305" y="1485"/>
      <point x="1362" y="1459" type="qcurve" smooth="yes"/>
      <point x="1387" y="1448"/>
      <point x="1402" y="1405"/>
      <point x="1387" y="1370" type="qcurve" smooth="yes"/>
      <point x="1372" y="1335"/>
      <point x="1335" y="1313"/>
      <point x="1311" y="1323" type="qcurve" smooth="yes"/>
      <point x="1254" y="1346"/>
      <point x="1139" y="1371"/>
      <point x="1079" y="1371" type="qcurve" smooth="yes"/>
      <point x="973" y="1371"/>
      <point x="835" y="1229"/>
      <point x="812" y="1097" type="qcurve" smooth="yes"/>
    </contour>
  </outline>
</glyph>
<glyph name="lessequal" format="2">
  <advance width="1228"/>
  <unicode hex="2264"/>
  <outline>
    <contour>
      <point x="969" y="250" type="line" smooth="yes"/>
      <point x="1003" y="250"/>
      <point x="1026" y="220"/>
      <point x="1020" y="182" type="qcurve" smooth="yes"/>
      <point x="1013" y="144"/>
      <point x="979" y="114"/>
      <point x="945" y="114" type="qcurve" smooth="yes"/>
      <point x="183" y="114" type="line" smooth="yes"/>
      <point x="149" y="114"/>
      <point x="125" y="144"/>
      <point x="132" y="182" type="qcurve" smooth="yes"/>
      <point x="138" y="220"/>
      <point x="173" y="250"/>
      <point x="207" y="250" type="qcurve" smooth="yes"/>
    </contour>
    <contour>
      <point x="457" y="747" type="line"/>
      <point x="1019" y="519" type="line" smooth="yes"/>
      <point x="1050" y="506"/>
      <point x="1066" y="469"/>
      <point x="1049" y="431" type="qcurve" smooth="yes"/>
      <point x="1033" y="394"/>
      <point x="998" y="374"/>
      <point x="969" y="386" type="qcurve" smooth="yes"/>
      <point x="272" y="680" type="line" smooth="yes"/>
      <point x="249" y="690"/>
      <point x="228" y="725"/>
      <point x="233" y="755" type="qcurve" smooth="yes"/>
      <point x="238" y="785"/>
      <point x="272" y="820"/>
      <point x="299" y="830" type="qcurve" smooth="yes"/>
      <point x="1082" y="1118" type="line" smooth="yes"/>
      <point x="1116" y="1130"/>
      <point x="1154" y="1113"/>
      <point x="1167" y="1076" type="qcurve" smooth="yes"/>
      <point x="1181" y="1038"/>
      <point x="1156" y="995"/>
      <point x="1121" y="983" type="qcurve" smooth="yes"/>
    </contour>
  </outline>
</glyph>
<glyph name="greaterequal" format="2">
  <advance width="1228"/>
  <unicode hex="2265"/>
  <outline>
    <contour>
      <point x="969" y="250" type="line" smooth="yes"/>
      <point x="1003" y="250"/>
      <point x="1026" y="220"/>
      <point x="1020" y="182" type="qcurve" smooth="yes"/>
      <point x="1013" y="144"/>
      <point x="979" y="114"/>
      <point x="945" y="114" type="qcurve" smooth="yes"/>
      <point x="183" y="114" type="line" smooth="yes"/>
      <point x="149" y="114"/>
      <point x="125" y="144"/>
      <point x="132" y="182" type="qcurve" smooth="yes"/>
      <point x="138" y="220"/>
      <point x="173" y="250"/>
      <point x="207" y="250" type="qcurve" smooth="yes"/>
    </contour>
    <contour>
      <point x="897" y="763" type="line"/>
      <point x="335" y="991" type="line" smooth="yes"/>
      <point x="304" y="1004"/>
      <point x="288" y="1041"/>
      <point x="305" y="1079" type="qcurve" smooth="yes"/>
      <point x="321" y="1116"/>
      <point x="356" y="1136"/>
      <point x="385" y="1124" type="qcurve" smooth="yes"/>
      <point x="1082" y="830" type="line" smooth="yes"/>
      <point x="1105" y="820"/>
      <point x="1126" y="785"/>
      <point x="1121" y="755" type="qcurve" smooth="yes"/>
      <point x="1116" y="725"/>
      <point x="1082" y="690"/>
      <point x="1055" y="680" type="qcurve" smooth="yes"/>
      <point x="272" y="392" type="line" smooth="yes"/>
      <point x="238" y="380"/>
      <point x="200" y="397"/>
      <point x="187" y="434" type="qcurve" smooth="yes"/>
      <point x="173" y="472"/>
      <point x="198" y="515"/>
      <point x="233" y="527" type="qcurve" smooth="yes"/>
    </contour>
  </outline>
</glyph>
<glyph name="emdash.alt1" format="2">
  <advance width="1228"/>
  <outline>
    <contour>
      <point x="1639" y="650" type="line" smooth="yes"/>
      <point x="1673" y="650"/>
      <point x="1697" y="620"/>
      <point x="1690" y="582" type="qcurve" smooth="yes"/>
      <point x="1683" y="544"/>
      <point x="1649" y="514"/>
      <point x="1615" y="514" type="qcurve" smooth="yes"/>
      <point x="-346" y="514" type="line" smooth="yes"/>
      <point x="-380" y="514"/>
      <point x="-404" y="544"/>
      <point x="-397" y="582" type="qcurve" smooth="yes"/>
      <point x="-390" y="620"/>
      <point x="-356" y="650"/>
      <point x="-322" y="650" type="qcurve" smooth="yes"/>
    </contour>
  </outline>
</glyph>
<glyph name="emdash.alt4" format="2">
  <advance width="1228"/>
  <outline>
    <contour>
      <point x="1439" y="650" type="line" smooth="yes"/>
      <point x="1473" y="650"/>
      <point x="1497" y="620"/>
      <point x="1490" y="582" type="qcurve" smooth="yes"/>
      <point x="1483" y="544"/>
      <point x="1449" y="514"/>
      <point x="1415" y="514" type="qcurve" smooth="yes"/>
      <point x="-146" y="514" type="line" smooth="yes"/>
      <point x="-180" y="514"/>
      <point x="-204" y="544"/>
      <point x="-197" y="582" type="qcurve" smooth="yes"/>
      <point x="-190" y="620"/>
      <point x="-156" y="650"/>
      <point x="-122" y="650" type="qcurve" smooth="yes"/>
    </contour>
  </outline>
</glyph>
<glyph name="period.alt" format="2">
  <advance width="1228"/>
  <outline>
    <contour>
      <point x="844" y="-22" type="qcurve" smooth="yes"/>
      <point x="812" y="-22"/>
      <point x="759" y="1"/>
      <point x="739.5" y="20.5" type="qcurve" smooth="yes" name="inserted"/>
      <point x="720" y="40"/>
      <point x="698" y="94"/>
      <point x="698" y="124" type="qcurve" smooth="yes"/>
      <point x="698" y="164"/>
      <point x="731" y="234"/>
      <point x="759.0" y="260.0" type="qcurve" smooth="yes" name="inserted"/>
      <point x="787" y="286"/>
      <point x="857" y="316"/>
      <point x="895" y="316" type="qcurve" smooth="yes"/>
      <point x="927" y="316"/>
      <point x="980" y="293"/>
      <point x="999.5" y="273.5" type="qcurve" smooth="yes" name="inserted"/>
      <point x="1019" y="254"/>
      <point x="1040" y="202"/>
      <point x="1040" y="172" type="qcurve" smooth="yes"/>
      <point x="1040" y="132"/>
      <point x="1007" y="61"/>
      <point x="980.0" y="35.0" type="qcurve" smooth="yes" name="inserted"/>
      <point x="953" y="9"/>
      <point x="882" y="-22"/>
    </contour>
  </outline>
</glyph>
<glyph name="semicolon.alt" format="2">
  <advance width="1228"/>
  <outline>
    <contour>
      <point x="956" y="608" type="qcurve" smooth="yes"/>
      <point x="924" y="608"/>
      <point x="871" y="631"/>
      <point x="851.5" y="650.5" type="qcurve" smooth="yes" name="inserted"/>
      <point x="832" y="670"/>
      <point x="810" y="724"/>
      <point x="810" y="754" type="qcurve" smooth="yes"/>
      <point x="810" y="794"/>
      <point x="843" y="864"/>
      <point x="871.0" y="890.0" type="qcurve" smooth="yes" name="inserted"/>
      <point x="899" y="916"/>
      <point x="969" y="946"/>
      <point x="1007" y="946" type="qcurve" smooth="yes"/>
      <point x="1039" y="946"/>
      <point x="1092" y="923"/>
      <point x="1111.5" y="903.5" type="qcurve" smooth="yes" name="inserted"/>
      <point x="1131" y="884"/>
      <point x="1152" y="832"/>
      <point x="1152" y="802" type="qcurve" smooth="yes"/>
      <point x="1152" y="762"/>
      <point x="1119" y="691"/>
      <point x="1092.0" y="665.0" type="qcurve" smooth="yes" name="inserted"/>
      <point x="1065" y="639"/>
      <point x="994" y="608"/>
    </contour>
    <contour>
      <point x="687" y="-253" type="line" smooth="yes"/>
      <point x="672.5" y="-273.5" name="inserted"/>
      <point x="635.0" y="-294.0"/>
      <point x="612" y="-294" type="qcurve" smooth="yes"/>
      <point x="583" y="-294"/>
      <point x="549" y="-260"/>
      <point x="561" y="-228" type="qcurve" smooth="yes"/>
      <point x="745" y="254" type="line" smooth="yes"/>
      <point x="752.5" y="274.0" name="inserted"/>
      <point x="782.0" y="294.0"/>
      <point x="804" y="294" type="qcurve" smooth="yes"/>
      <point x="1012" y="294" type="line" smooth="yes"/>
      <point x="1037" y="294"/>
      <point x="1047" y="257"/>
      <point x="1029" y="231" type="qcurve" smooth="yes"/>
    </contour>
  </outline>
</glyph>
